<?xml version="1.0" encoding="UTF-8" standalone="no"?><!DOCTYPE svg PUBLIC "-//W3C//DTD SVG 1.1//EN" "http://www.w3.org/Graphics/SVG/1.1/DTD/svg11.dtd"><svg width="100%" height="100%" viewBox="0 0 880 240" version="1.1" xmlns="http://www.w3.org/2000/svg" xmlns:xlink="http://www.w3.org/1999/xlink" xml:space="preserve" xmlns:serif="http://www.serif.com/" style="fill-rule:evenodd;clip-rule:evenodd;stroke-linejoin:round;stroke-miterlimit:2;"><rect id="BackGround_Under" x="0" y="-0" width="880" height="240" style="fill:#373737;"/><g id="BackGround_Top"><rect x="10" y="60" width="860" height="170" style="fill:#232323;"/><rect x="10" y="10" width="860" height="40" style="fill:#232323;"/></g><g id="Line"><rect x="110" y="90" width="205" height="2" style="fill:#e6e6e6;"/><rect x="420" y="90" width="130" height="2" style="fill:#e6e6e6;"/></g><g id="Character"><path d="M347.273,95.129l0,-10.211l3.297,-0c1.161,-0 2.033,0.203 2.613,0.609c0.581,0.407 0.871,1.021 0.871,1.844c0,0.255 -0.03,0.504 -0.089,0.746c-0.06,0.242 -0.153,0.465 -0.278,0.668c-0.125,0.203 -0.281,0.383 -0.469,0.539c-0.187,0.156 -0.408,0.279 -0.664,0.367c0.256,0.042 0.499,0.124 0.731,0.246c0.232,0.123 0.435,0.282 0.609,0.477c0.175,0.195 0.313,0.426 0.414,0.691c0.102,0.266 0.153,0.563 0.153,0.891c-0,1.042 -0.349,1.824 -1.047,2.348c-0.698,0.523 -1.706,0.785 -3.024,0.785l-3.117,-0Zm4.781,-7.422c0,-0.193 -0.031,-0.367 -0.093,-0.523c-0.063,-0.157 -0.163,-0.29 -0.301,-0.399c-0.138,-0.109 -0.315,-0.194 -0.531,-0.254c-0.217,-0.06 -0.478,-0.09 -0.786,-0.09l-1.164,0l0,2.703l1.164,0c0.313,0 0.577,-0.037 0.793,-0.113c0.217,-0.075 0.394,-0.18 0.532,-0.312c0.138,-0.133 0.237,-0.285 0.297,-0.457c0.059,-0.172 0.089,-0.357 0.089,-0.555Zm-1.531,5.852c0.307,-0 0.577,-0.04 0.809,-0.118c0.231,-0.078 0.425,-0.186 0.582,-0.324c0.156,-0.138 0.274,-0.301 0.355,-0.488c0.081,-0.188 0.121,-0.388 0.121,-0.602c0,-0.442 -0.165,-0.789 -0.496,-1.039c-0.331,-0.25 -0.837,-0.375 -1.519,-0.375l-1.196,0l0,2.946l1.344,-0Z" style="fill:#fff;fill-rule:nonzero;"/><path d="M361.703,95.129l-0.563,-2.016l-3.562,0l-0.578,2.016l-1.907,-0l3.024,-10.211l2.687,-0l3.024,10.211l-2.125,-0Zm-2.321,-8.336l-1.343,4.75l2.672,-0l-1.329,-4.75Z" style="fill:#fff;fill-rule:nonzero;"/><path d="M369.64,95.129l-2.734,-6.094l-0.563,-1.312l0,7.406l-1.75,-0l0,-10.211l2.36,-0l2.789,6.133l0.492,1.195l0,-7.328l1.75,-0l0,10.211l-2.344,-0Z" style="fill:#fff;fill-rule:nonzero;"/><path d="M381.039,89.894c-0,0.792 -0.098,1.511 -0.293,2.157c-0.196,0.646 -0.5,1.196 -0.914,1.652c-0.414,0.456 -0.944,0.807 -1.59,1.055c-0.646,0.247 -1.419,0.371 -2.32,0.371l-2.594,-0l-0,-10.211l3.023,-0c0.781,-0 1.465,0.098 2.051,0.293c0.586,0.195 1.074,0.496 1.465,0.902c0.39,0.406 0.683,0.922 0.879,1.547c0.195,0.625 0.293,1.37 0.293,2.234Zm-2.063,0.125c0,-0.552 -0.044,-1.044 -0.133,-1.476c-0.088,-0.432 -0.238,-0.798 -0.449,-1.098c-0.211,-0.299 -0.493,-0.527 -0.847,-0.683c-0.355,-0.157 -0.795,-0.235 -1.321,-0.235l-0.976,0l-0,6.992l0.843,0c0.943,0 1.659,-0.281 2.149,-0.843c0.489,-0.563 0.734,-1.448 0.734,-2.657Z" style="fill:#fff;fill-rule:nonzero;"/><path d="M391.257,95.129l0,-1.406l2.415,-2.414c0.453,-0.454 0.816,-0.844 1.089,-1.172c0.274,-0.328 0.485,-0.621 0.633,-0.879c0.149,-0.258 0.246,-0.496 0.293,-0.715c0.047,-0.219 0.07,-0.445 0.07,-0.68c0,-0.193 -0.031,-0.376 -0.093,-0.551c-0.063,-0.174 -0.154,-0.325 -0.274,-0.453c-0.12,-0.127 -0.271,-0.229 -0.453,-0.304c-0.182,-0.076 -0.39,-0.114 -0.625,-0.114c-0.401,0 -0.773,0.088 -1.117,0.262c-0.344,0.175 -0.669,0.408 -0.977,0.699l-1.007,-1.297c0.442,-0.411 0.941,-0.74 1.496,-0.988c0.554,-0.247 1.155,-0.371 1.8,-0.371c0.5,0 0.954,0.064 1.36,0.191c0.406,0.128 0.754,0.317 1.043,0.567c0.289,0.25 0.513,0.562 0.672,0.937c0.159,0.375 0.238,0.808 0.238,1.297c-0,0.406 -0.055,0.785 -0.164,1.137c-0.109,0.351 -0.268,0.694 -0.477,1.027c-0.208,0.334 -0.465,0.667 -0.769,1c-0.305,0.334 -0.653,0.685 -1.043,1.055l-1.485,1.414l4.305,0l0,1.758l-6.93,-0Z" style="fill:#fff;fill-rule:nonzero;"/><path d="M40.755,95.126l0,-10.211l3.297,0c1.162,0 2.033,0.203 2.613,0.61c0.581,0.406 0.872,1.021 0.872,1.843c-0,0.256 -0.03,0.504 -0.09,0.747c-0.06,0.242 -0.153,0.464 -0.278,0.668c-0.125,0.203 -0.281,0.382 -0.468,0.539c-0.188,0.156 -0.409,0.278 -0.664,0.367c0.255,0.041 0.498,0.123 0.73,0.246c0.232,0.122 0.435,0.281 0.609,0.476c0.175,0.196 0.313,0.426 0.414,0.692c0.102,0.265 0.153,0.562 0.153,0.89c-0,1.042 -0.349,1.825 -1.047,2.348c-0.698,0.524 -1.706,0.785 -3.023,0.785l-3.118,0Zm4.782,-7.422c-0,-0.192 -0.032,-0.367 -0.094,-0.523c-0.063,-0.156 -0.163,-0.289 -0.301,-0.398c-0.138,-0.11 -0.315,-0.194 -0.531,-0.254c-0.216,-0.06 -0.478,-0.09 -0.785,-0.09l-1.164,-0l-0,2.703l1.164,-0c0.312,-0 0.576,-0.038 0.793,-0.113c0.216,-0.076 0.393,-0.18 0.531,-0.313c0.138,-0.133 0.237,-0.285 0.297,-0.457c0.06,-0.172 0.09,-0.357 0.09,-0.555Zm-1.532,5.852c0.308,-0 0.577,-0.039 0.809,-0.117c0.232,-0.078 0.426,-0.186 0.582,-0.324c0.156,-0.138 0.275,-0.301 0.355,-0.489c0.081,-0.187 0.122,-0.388 0.122,-0.601c-0,-0.443 -0.166,-0.789 -0.497,-1.039c-0.33,-0.25 -0.837,-0.375 -1.519,-0.375l-1.195,-0l-0,2.945l1.343,-0Z" style="fill:#fff;fill-rule:nonzero;"/><path d="M55.185,95.126l-0.562,-2.015l-3.563,-0l-0.578,2.015l-1.906,0l3.023,-10.211l2.688,0l3.023,10.211l-2.125,0Zm-2.32,-8.336l-1.344,4.75l2.672,0l-1.328,-4.75Z" style="fill:#fff;fill-rule:nonzero;"/><path d="M63.122,95.126l-2.734,-6.093l-0.562,-1.313l-0,7.406l-1.75,0l-0,-10.211l2.359,0l2.789,6.133l0.492,1.195l0,-7.328l1.75,0l0,10.211l-2.344,0Z" style="fill:#fff;fill-rule:nonzero;"/><path d="M74.521,89.892c-0,0.792 -0.098,1.51 -0.293,2.156c-0.195,0.646 -0.5,1.197 -0.914,1.652c-0.414,0.456 -0.944,0.808 -1.59,1.055c-0.646,0.248 -1.419,0.371 -2.32,0.371l-2.594,0l-0,-10.211l3.023,0c0.782,0 1.465,0.098 2.051,0.293c0.586,0.196 1.074,0.496 1.465,0.903c0.391,0.406 0.684,0.922 0.879,1.547c0.195,0.625 0.293,1.369 0.293,2.234Zm-2.063,0.125c0,-0.552 -0.044,-1.044 -0.132,-1.477c-0.089,-0.432 -0.239,-0.798 -0.45,-1.097c-0.211,-0.3 -0.493,-0.528 -0.847,-0.684c-0.354,-0.156 -0.795,-0.234 -1.321,-0.234l-0.976,-0l-0,6.992l0.844,-0c0.942,-0 1.658,-0.281 2.148,-0.844c0.49,-0.562 0.734,-1.448 0.734,-2.656Z" style="fill:#fff;fill-rule:nonzero;"/><path d="M84.919,95.126l0,-1.695l2.602,-0l-0,-6.563l-2.266,1.25l-0.625,-1.554l3.242,-1.711l1.602,-0l0,8.578l2.242,-0l0,1.695l-6.797,0Z" style="fill:#fff;fill-rule:nonzero;"/><path d="M81.751,118.211c0,0.695 -0.081,1.295 -0.243,1.799c-0.162,0.504 -0.385,0.918 -0.668,1.242c-0.283,0.324 -0.615,0.564 -0.996,0.721c-0.381,0.156 -0.788,0.234 -1.222,0.234c-1.008,0 -1.765,-0.335 -2.273,-1.005c-0.508,-0.67 -0.762,-1.643 -0.762,-2.921c0,-0.695 0.081,-1.295 0.243,-1.799c0.162,-0.503 0.385,-0.918 0.668,-1.242c0.283,-0.324 0.615,-0.564 0.996,-0.72c0.381,-0.157 0.788,-0.235 1.222,-0.235c1.008,0 1.766,0.334 2.273,1.002c0.508,0.668 0.762,1.643 0.762,2.924Zm-1.523,0.07c-0,-0.906 -0.121,-1.582 -0.364,-2.027c-0.242,-0.445 -0.64,-0.668 -1.195,-0.668c-0.277,-0 -0.514,0.058 -0.709,0.173c-0.195,0.115 -0.356,0.284 -0.483,0.507c-0.127,0.222 -0.22,0.497 -0.279,0.823c-0.058,0.326 -0.087,0.7 -0.087,1.122c-0,0.906 0.122,1.582 0.366,2.027c0.244,0.446 0.641,0.668 1.192,0.668c0.277,0 0.515,-0.057 0.712,-0.173c0.197,-0.115 0.358,-0.284 0.483,-0.506c0.125,-0.223 0.217,-0.498 0.276,-0.824c0.058,-0.326 0.088,-0.7 0.088,-1.122Z" style="fill:#fff;fill-rule:nonzero;"/><path d="M86.614,118.434c0.008,-0.223 -0.002,-0.413 -0.032,-0.569c-0.029,-0.156 -0.076,-0.285 -0.14,-0.386c-0.065,-0.102 -0.144,-0.176 -0.238,-0.223c-0.093,-0.047 -0.201,-0.07 -0.322,-0.07c-0.211,-0 -0.429,0.086 -0.653,0.26c-0.225,0.174 -0.472,0.46 -0.741,0.859l-0,3.767l-1.465,0l-0,-5.953l1.295,0l0.052,0.867c0.098,-0.152 0.208,-0.289 0.331,-0.41c0.123,-0.121 0.26,-0.225 0.411,-0.313c0.15,-0.088 0.317,-0.156 0.501,-0.202c0.183,-0.047 0.384,-0.071 0.603,-0.071c0.301,0 0.567,0.052 0.8,0.156c0.232,0.103 0.428,0.256 0.586,0.459c0.158,0.204 0.275,0.458 0.351,0.765c0.077,0.307 0.109,0.661 0.097,1.064l-1.436,-0Z" style="fill:#fff;fill-rule:nonzero;"/><path d="M93.124,122.072l-0.035,-0.879c-0.125,0.153 -0.254,0.291 -0.387,0.416c-0.132,0.125 -0.275,0.232 -0.427,0.32c-0.153,0.088 -0.316,0.156 -0.49,0.205c-0.173,0.049 -0.366,0.073 -0.577,0.073c-0.351,0 -0.664,-0.07 -0.937,-0.211c-0.274,-0.141 -0.503,-0.341 -0.689,-0.6c-0.185,-0.26 -0.327,-0.576 -0.425,-0.947c-0.097,-0.371 -0.146,-0.785 -0.146,-1.242c-0,-0.547 0.077,-1.02 0.231,-1.421c0.155,-0.4 0.369,-0.732 0.642,-0.996c0.273,-0.264 0.598,-0.459 0.973,-0.586c0.375,-0.127 0.783,-0.19 1.224,-0.19c0.149,-0 0.298,0.009 0.449,0.029c0.15,0.019 0.284,0.045 0.401,0.076l-0,-2.326l1.43,-0l-0,8.279l-1.237,0Zm-2.613,-2.929c-0,0.328 0.022,0.608 0.067,0.84c0.045,0.233 0.112,0.423 0.2,0.572c0.087,0.148 0.196,0.257 0.325,0.325c0.129,0.068 0.275,0.102 0.439,0.102c0.242,0 0.473,-0.097 0.692,-0.293c0.218,-0.195 0.451,-0.462 0.697,-0.802l-0,-2.602c-0.113,-0.043 -0.253,-0.078 -0.419,-0.105c-0.166,-0.028 -0.333,-0.041 -0.501,-0.041c-0.231,-0 -0.438,0.047 -0.621,0.14c-0.184,0.094 -0.341,0.227 -0.472,0.399c-0.131,0.172 -0.231,0.382 -0.302,0.63c-0.07,0.248 -0.105,0.526 -0.105,0.835Z" style="fill:#fff;fill-rule:nonzero;"/><path d="M101.163,118.639c0,0.097 -0.003,0.224 -0.008,0.381c-0.006,0.156 -0.015,0.302 -0.027,0.439l-3.914,-0c0,0.262 0.04,0.492 0.12,0.691c0.08,0.2 0.194,0.367 0.34,0.501c0.147,0.135 0.322,0.238 0.527,0.308c0.205,0.07 0.433,0.105 0.683,0.105c0.289,0 0.599,-0.022 0.929,-0.067c0.33,-0.045 0.673,-0.118 1.028,-0.22l0,1.137c-0.152,0.043 -0.318,0.082 -0.498,0.117c-0.18,0.035 -0.363,0.067 -0.551,0.094c-0.187,0.027 -0.377,0.048 -0.568,0.062c-0.192,0.013 -0.377,0.02 -0.557,0.02c-0.453,0 -0.859,-0.064 -1.219,-0.193c-0.359,-0.129 -0.664,-0.32 -0.914,-0.572c-0.25,-0.252 -0.441,-0.563 -0.574,-0.934c-0.133,-0.371 -0.199,-0.801 -0.199,-1.289c-0,-0.485 0.066,-0.925 0.199,-1.322c0.133,-0.396 0.32,-0.736 0.563,-1.019c0.242,-0.283 0.536,-0.502 0.882,-0.656c0.345,-0.155 0.731,-0.232 1.157,-0.232c0.422,0 0.795,0.066 1.119,0.197c0.324,0.13 0.596,0.313 0.814,0.547c0.219,0.235 0.385,0.514 0.498,0.838c0.114,0.324 0.17,0.68 0.17,1.067Zm-1.453,-0.205c0.004,-0.235 -0.025,-0.439 -0.088,-0.613c-0.062,-0.174 -0.147,-0.317 -0.255,-0.43c-0.107,-0.114 -0.232,-0.198 -0.375,-0.252c-0.142,-0.055 -0.296,-0.082 -0.46,-0.082c-0.359,-0 -0.654,0.12 -0.884,0.36c-0.231,0.24 -0.368,0.579 -0.41,1.017l2.472,-0Z" style="fill:#fff;fill-rule:nonzero;"/><path d="M106.407,118.434c0.008,-0.223 -0.002,-0.413 -0.032,-0.569c-0.029,-0.156 -0.076,-0.285 -0.14,-0.386c-0.065,-0.102 -0.144,-0.176 -0.238,-0.223c-0.093,-0.047 -0.201,-0.07 -0.322,-0.07c-0.211,-0 -0.429,0.086 -0.653,0.26c-0.225,0.174 -0.472,0.46 -0.742,0.859l0,3.767l-1.464,0l-0,-5.953l1.295,0l0.052,0.867c0.098,-0.152 0.208,-0.289 0.331,-0.41c0.123,-0.121 0.26,-0.225 0.411,-0.313c0.15,-0.088 0.317,-0.156 0.5,-0.202c0.184,-0.047 0.385,-0.071 0.604,-0.071c0.301,0 0.567,0.052 0.8,0.156c0.232,0.103 0.428,0.256 0.586,0.459c0.158,0.204 0.275,0.458 0.351,0.765c0.076,0.307 0.109,0.661 0.097,1.064l-1.436,-0Z" style="fill:#fff;fill-rule:nonzero;"/><path d="M148.685,116.09l-0,2.121l2.894,-0l0,1.184l-2.894,-0l-0,3.134l-1.465,0l-0,-7.658l4.523,0l0,1.219l-3.058,-0Z" style="fill:#fff;fill-rule:nonzero;"/><path d="M157.386,118.891c0.008,-0.223 -0.003,-0.412 -0.032,-0.569c-0.03,-0.156 -0.077,-0.285 -0.141,-0.386c-0.065,-0.102 -0.144,-0.176 -0.237,-0.223c-0.094,-0.047 -0.202,-0.07 -0.323,-0.07c-0.211,-0 -0.428,0.086 -0.653,0.26c-0.225,0.174 -0.472,0.46 -0.741,0.859l-0,3.767l-1.465,0l-0,-5.953l1.295,0l0.053,0.867c0.097,-0.152 0.208,-0.289 0.331,-0.41c0.123,-0.121 0.259,-0.225 0.41,-0.313c0.15,-0.088 0.317,-0.156 0.501,-0.202c0.183,-0.047 0.385,-0.071 0.603,-0.071c0.301,0 0.568,0.052 0.8,0.156c0.233,0.103 0.428,0.256 0.586,0.459c0.158,0.204 0.275,0.459 0.352,0.765c0.076,0.307 0.108,0.661 0.096,1.064l-1.435,-0Z" style="fill:#fff;fill-rule:nonzero;"/><path d="M165.337,119.096c-0,0.097 -0.003,0.224 -0.009,0.381c-0.006,0.156 -0.015,0.302 -0.026,0.439l-3.914,0c-0,0.262 0.04,0.492 0.12,0.691c0.08,0.2 0.193,0.367 0.34,0.501c0.146,0.135 0.322,0.238 0.527,0.308c0.205,0.07 0.433,0.105 0.683,0.105c0.289,0 0.598,-0.022 0.928,-0.067c0.33,-0.045 0.673,-0.118 1.029,-0.22l-0,1.137c-0.153,0.043 -0.319,0.082 -0.498,0.117c-0.18,0.035 -0.364,0.067 -0.551,0.094c-0.188,0.027 -0.377,0.048 -0.569,0.062c-0.191,0.013 -0.377,0.02 -0.556,0.02c-0.453,0 -0.86,-0.064 -1.219,-0.193c-0.359,-0.129 -0.664,-0.32 -0.914,-0.572c-0.25,-0.252 -0.441,-0.563 -0.574,-0.934c-0.133,-0.371 -0.199,-0.801 -0.199,-1.289c-0,-0.485 0.066,-0.925 0.199,-1.322c0.133,-0.396 0.32,-0.736 0.562,-1.019c0.242,-0.283 0.536,-0.502 0.882,-0.656c0.346,-0.155 0.732,-0.232 1.157,-0.232c0.422,0 0.795,0.066 1.119,0.197c0.325,0.13 0.596,0.313 0.815,0.547c0.219,0.235 0.385,0.514 0.498,0.838c0.113,0.325 0.17,0.68 0.17,1.067Zm-1.453,-0.205c0.004,-0.235 -0.026,-0.439 -0.088,-0.613c-0.063,-0.174 -0.148,-0.317 -0.255,-0.43c-0.107,-0.114 -0.232,-0.198 -0.375,-0.252c-0.143,-0.055 -0.296,-0.082 -0.46,-0.082c-0.359,-0 -0.654,0.12 -0.885,0.36c-0.23,0.24 -0.367,0.579 -0.41,1.017l2.473,-0Z" style="fill:#fff;fill-rule:nonzero;"/><path d="M170.3,124.855l-0,-1.957l0.064,-1.16c-0.109,0.137 -0.225,0.262 -0.348,0.375c-0.123,0.114 -0.258,0.211 -0.405,0.293c-0.146,0.082 -0.305,0.146 -0.477,0.191c-0.172,0.045 -0.358,0.067 -0.557,0.067c-0.351,0 -0.664,-0.07 -0.937,-0.211c-0.274,-0.141 -0.503,-0.341 -0.689,-0.6c-0.185,-0.26 -0.327,-0.576 -0.425,-0.947c-0.097,-0.371 -0.146,-0.785 -0.146,-1.242c-0,-0.473 0.064,-0.905 0.193,-1.298c0.129,-0.392 0.322,-0.729 0.577,-1.011c0.256,-0.281 0.576,-0.499 0.958,-0.653c0.383,-0.154 0.83,-0.231 1.342,-0.231c0.098,-0 0.205,0.006 0.322,0.017c0.118,0.012 0.235,0.027 0.352,0.044c0.117,0.018 0.23,0.039 0.337,0.065c0.107,0.025 0.202,0.051 0.284,0.079l0.984,-0.217l0,8.396l-1.429,0Zm-2.42,-5.255c-0,0.328 0.022,0.608 0.067,0.84c0.045,0.233 0.112,0.423 0.199,0.572c0.088,0.148 0.197,0.257 0.326,0.325c0.129,0.068 0.275,0.102 0.439,0.102c0.242,0 0.473,-0.097 0.692,-0.293c0.218,-0.195 0.451,-0.462 0.697,-0.802l-0,-2.602c-0.113,-0.043 -0.253,-0.078 -0.419,-0.105c-0.166,-0.028 -0.333,-0.041 -0.501,-0.041c-0.231,-0 -0.438,0.047 -0.621,0.14c-0.184,0.094 -0.341,0.227 -0.472,0.399c-0.131,0.172 -0.231,0.382 -0.302,0.63c-0.07,0.248 -0.105,0.526 -0.105,0.835Z" style="fill:#fff;fill-rule:nonzero;"/><path d="M174.765,116.576l-0,3.879c-0,0.324 0.06,0.569 0.181,0.735c0.121,0.166 0.305,0.249 0.551,0.249c0.238,0 0.468,-0.098 0.689,-0.295c0.22,-0.198 0.454,-0.464 0.7,-0.8l-0,-3.768l1.429,0l0,5.953l-1.236,0l-0.035,-0.879c-0.125,0.153 -0.252,0.291 -0.381,0.416c-0.129,0.125 -0.268,0.232 -0.419,0.32c-0.15,0.088 -0.314,0.156 -0.492,0.205c-0.178,0.049 -0.374,0.073 -0.589,0.073c-0.305,0 -0.571,-0.05 -0.8,-0.149c-0.228,-0.1 -0.419,-0.242 -0.571,-0.425c-0.152,-0.184 -0.267,-0.403 -0.343,-0.659c-0.076,-0.256 -0.114,-0.542 -0.114,-0.859l-0,-3.996l1.43,0Z" style="fill:#fff;fill-rule:nonzero;"/><path d="M185.13,119.096c-0,0.097 -0.003,0.224 -0.009,0.381c-0.006,0.156 -0.015,0.302 -0.026,0.439l-3.914,0c-0,0.262 0.04,0.492 0.12,0.691c0.08,0.2 0.193,0.367 0.34,0.501c0.146,0.135 0.322,0.238 0.527,0.308c0.205,0.07 0.433,0.105 0.683,0.105c0.289,0 0.598,-0.022 0.928,-0.067c0.33,-0.045 0.673,-0.118 1.029,-0.22l-0,1.137c-0.153,0.043 -0.319,0.082 -0.498,0.117c-0.18,0.035 -0.364,0.067 -0.551,0.094c-0.188,0.027 -0.377,0.048 -0.569,0.062c-0.191,0.013 -0.377,0.02 -0.556,0.02c-0.453,0 -0.86,-0.064 -1.219,-0.193c-0.359,-0.129 -0.664,-0.32 -0.914,-0.572c-0.25,-0.252 -0.441,-0.563 -0.574,-0.934c-0.133,-0.371 -0.199,-0.801 -0.199,-1.289c-0,-0.485 0.066,-0.925 0.199,-1.322c0.133,-0.396 0.32,-0.736 0.562,-1.019c0.242,-0.283 0.536,-0.502 0.882,-0.656c0.346,-0.155 0.732,-0.232 1.157,-0.232c0.422,0 0.795,0.066 1.119,0.197c0.325,0.13 0.596,0.313 0.815,0.547c0.219,0.235 0.385,0.514 0.498,0.838c0.113,0.325 0.17,0.68 0.17,1.067Zm-1.453,-0.205c0.004,-0.235 -0.026,-0.439 -0.088,-0.613c-0.063,-0.174 -0.148,-0.317 -0.255,-0.43c-0.107,-0.114 -0.232,-0.198 -0.375,-0.252c-0.143,-0.055 -0.296,-0.082 -0.46,-0.082c-0.359,-0 -0.654,0.12 -0.885,0.36c-0.23,0.24 -0.367,0.579 -0.41,1.017l2.473,-0Z" style="fill:#fff;fill-rule:nonzero;"/><path d="M190.093,122.529l-0,-3.879c-0,-0.652 -0.242,-0.978 -0.727,-0.978c-0.242,-0 -0.473,0.098 -0.694,0.293c-0.221,0.195 -0.454,0.461 -0.7,0.797l-0,3.767l-1.43,0l-0,-5.953l1.236,0l0.035,0.879c0.122,-0.152 0.248,-0.291 0.378,-0.416c0.131,-0.125 0.273,-0.231 0.425,-0.319c0.153,-0.088 0.317,-0.156 0.492,-0.202c0.176,-0.047 0.373,-0.071 0.592,-0.071c0.305,0 0.57,0.05 0.797,0.15c0.227,0.099 0.416,0.24 0.568,0.422c0.153,0.181 0.267,0.4 0.343,0.656c0.076,0.256 0.114,0.542 0.114,0.858l0,3.996l-1.429,0Z" style="fill:#fff;fill-rule:nonzero;"/><path d="M197.956,122.301c-0.281,0.113 -0.572,0.197 -0.873,0.252c-0.301,0.054 -0.615,0.082 -0.943,0.082c-0.473,-0 -0.897,-0.065 -1.272,-0.194c-0.375,-0.128 -0.693,-0.32 -0.955,-0.574c-0.262,-0.254 -0.462,-0.568 -0.601,-0.943c-0.138,-0.375 -0.208,-0.809 -0.208,-1.301c0,-0.477 0.076,-0.908 0.226,-1.295c0.15,-0.387 0.362,-0.717 0.636,-0.99c0.273,-0.274 0.602,-0.484 0.987,-0.633c0.385,-0.148 0.814,-0.223 1.286,-0.223c0.387,0 0.712,0.021 0.976,0.062c0.264,0.041 0.501,0.093 0.712,0.155l-0,1.389c-0.242,-0.121 -0.505,-0.215 -0.788,-0.281c-0.284,-0.067 -0.552,-0.1 -0.806,-0.1c-0.266,0 -0.504,0.045 -0.715,0.135c-0.211,0.09 -0.389,0.215 -0.533,0.375c-0.145,0.16 -0.255,0.354 -0.331,0.583c-0.076,0.228 -0.114,0.479 -0.114,0.753c-0,0.285 0.041,0.541 0.123,0.767c0.082,0.227 0.198,0.419 0.348,0.577c0.151,0.159 0.331,0.28 0.542,0.364c0.211,0.084 0.446,0.126 0.703,0.126c0.125,-0 0.257,-0.009 0.396,-0.027c0.139,-0.017 0.277,-0.043 0.416,-0.076c0.139,-0.033 0.275,-0.071 0.41,-0.114c0.135,-0.043 0.261,-0.09 0.378,-0.141l0,1.272Z" style="fill:#fff;fill-rule:nonzero;"/><path d="M203.317,121.879c-0.207,0.516 -0.422,0.968 -0.647,1.356c-0.225,0.389 -0.472,0.713 -0.741,0.973c-0.27,0.26 -0.57,0.455 -0.9,0.586c-0.33,0.131 -0.7,0.196 -1.11,0.196c-0.098,0 -0.204,-0.005 -0.319,-0.014c-0.116,-0.01 -0.234,-0.025 -0.355,-0.044l0,-1.213c0.047,0.008 0.101,0.016 0.161,0.026c0.061,0.01 0.124,0.018 0.191,0.024c0.066,0.005 0.133,0.01 0.202,0.014c0.068,0.004 0.132,0.006 0.19,0.006c0.164,0 0.317,-0.031 0.457,-0.094c0.141,-0.062 0.271,-0.149 0.39,-0.26c0.119,-0.112 0.227,-0.245 0.325,-0.399c0.098,-0.154 0.184,-0.323 0.258,-0.507l-2.361,-5.953l1.593,0l1.237,3.375l0.369,1.09l0.363,-1.043l1.248,-3.422l1.535,0l-2.086,5.303Z" style="fill:#fff;fill-rule:nonzero;"/><path d="M216.56,124.99c-0.95,-0.804 -1.662,-1.668 -2.136,-2.59c-0.475,-0.921 -0.712,-1.914 -0.712,-2.976c-0,-0.594 0.07,-1.155 0.211,-1.685c0.14,-0.529 0.339,-1.026 0.595,-1.491c0.255,-0.465 0.56,-0.901 0.914,-1.31c0.353,-0.408 0.741,-0.79 1.163,-1.145l0.814,0.814c-0.762,0.684 -1.334,1.422 -1.717,2.215c-0.382,0.793 -0.574,1.627 -0.574,2.502c0,0.887 0.192,1.739 0.574,2.558c0.383,0.818 0.955,1.565 1.717,2.241l-0.849,0.867Z" style="fill:#fff;fill-rule:nonzero;"/><path d="M223.315,122.529l0,-3.334l-2.601,0l-0,3.334l-1.442,0l0,-7.658l1.442,0l-0,3.076l2.601,0l0,-3.076l1.442,0l-0,7.658l-1.442,0Z" style="fill:#fff;fill-rule:nonzero;"/><path d="M226.192,122.529l0,-0.996l2.912,-3.732l-2.841,-0l-0,-1.225l4.728,0l0,1.008l-2.847,3.686l2.894,-0l0,1.259l-4.846,0Z" style="fill:#fff;fill-rule:nonzero;"/><path d="M234.097,113.793c0.957,0.797 1.67,1.657 2.138,2.581c0.469,0.924 0.703,1.919 0.703,2.985c0,0.594 -0.07,1.155 -0.21,1.682c-0.141,0.527 -0.337,1.025 -0.589,1.494c-0.252,0.469 -0.554,0.907 -0.906,1.316c-0.351,0.408 -0.738,0.788 -1.16,1.139l-0.82,-0.814c0.766,-0.684 1.34,-1.424 1.723,-2.221c0.382,-0.797 0.574,-1.633 0.574,-2.508c-0,-0.883 -0.192,-1.734 -0.574,-2.554c-0.383,-0.821 -0.957,-1.571 -1.723,-2.25l0.844,-0.85Z" style="fill:#fff;fill-rule:nonzero;"/><path d="M453.813,116.09l0,2.121l2.895,-0l-0,1.184l-2.895,-0l0,3.134l-1.465,0l0,-7.658l4.524,0l-0,1.219l-3.059,-0Z" style="fill:#fff;fill-rule:nonzero;"/><path d="M462.514,118.891c0.008,-0.223 -0.003,-0.412 -0.032,-0.569c-0.029,-0.156 -0.076,-0.285 -0.141,-0.386c-0.064,-0.102 -0.143,-0.176 -0.237,-0.223c-0.094,-0.047 -0.201,-0.07 -0.322,-0.07c-0.211,-0 -0.429,0.086 -0.653,0.26c-0.225,0.174 -0.472,0.46 -0.742,0.859l0,3.767l-1.465,0l0,-5.953l1.295,0l0.053,0.867c0.098,-0.152 0.208,-0.289 0.331,-0.41c0.123,-0.121 0.26,-0.225 0.41,-0.313c0.151,-0.088 0.318,-0.156 0.501,-0.202c0.184,-0.047 0.385,-0.071 0.604,-0.071c0.301,0 0.567,0.052 0.8,0.156c0.232,0.103 0.427,0.256 0.586,0.459c0.158,0.204 0.275,0.459 0.351,0.765c0.076,0.307 0.109,0.661 0.097,1.064l-1.436,-0Z" style="fill:#fff;fill-rule:nonzero;"/><path d="M470.465,119.096c0,0.097 -0.002,0.224 -0.008,0.381c-0.006,0.156 -0.015,0.302 -0.027,0.439l-3.914,0c0,0.262 0.04,0.492 0.12,0.691c0.08,0.2 0.194,0.367 0.34,0.501c0.147,0.135 0.322,0.238 0.528,0.308c0.205,0.07 0.432,0.105 0.682,0.105c0.289,0 0.599,-0.022 0.929,-0.067c0.33,-0.045 0.673,-0.118 1.028,-0.22l0,1.137c-0.152,0.043 -0.318,0.082 -0.498,0.117c-0.18,0.035 -0.363,0.067 -0.551,0.094c-0.187,0.027 -0.377,0.048 -0.568,0.062c-0.191,0.013 -0.377,0.02 -0.557,0.02c-0.453,0 -0.859,-0.064 -1.218,-0.193c-0.36,-0.129 -0.664,-0.32 -0.914,-0.572c-0.25,-0.252 -0.442,-0.563 -0.575,-0.934c-0.132,-0.371 -0.199,-0.801 -0.199,-1.289c0,-0.485 0.067,-0.925 0.199,-1.322c0.133,-0.396 0.321,-0.736 0.563,-1.019c0.242,-0.283 0.536,-0.502 0.882,-0.656c0.345,-0.155 0.731,-0.232 1.157,-0.232c0.422,0 0.795,0.066 1.119,0.197c0.324,0.13 0.596,0.313 0.814,0.547c0.219,0.235 0.385,0.514 0.499,0.838c0.113,0.325 0.169,0.68 0.169,1.067Zm-1.453,-0.205c0.004,-0.235 -0.025,-0.439 -0.088,-0.613c-0.062,-0.174 -0.147,-0.317 -0.254,-0.43c-0.108,-0.114 -0.233,-0.198 -0.375,-0.252c-0.143,-0.055 -0.296,-0.082 -0.46,-0.082c-0.36,-0 -0.655,0.12 -0.885,0.36c-0.231,0.24 -0.367,0.579 -0.41,1.017l2.472,-0Z" style="fill:#fff;fill-rule:nonzero;"/><path d="M475.428,124.855l0,-1.957l0.065,-1.16c-0.11,0.137 -0.226,0.262 -0.349,0.375c-0.123,0.114 -0.258,0.211 -0.404,0.293c-0.147,0.082 -0.306,0.146 -0.478,0.191c-0.172,0.045 -0.357,0.067 -0.556,0.067c-0.352,0 -0.664,-0.07 -0.938,-0.211c-0.273,-0.141 -0.503,-0.341 -0.688,-0.6c-0.186,-0.26 -0.327,-0.576 -0.425,-0.947c-0.098,-0.371 -0.147,-0.785 -0.147,-1.242c0,-0.473 0.065,-0.905 0.194,-1.298c0.129,-0.392 0.321,-0.729 0.577,-1.011c0.256,-0.281 0.575,-0.499 0.958,-0.653c0.383,-0.154 0.83,-0.231 1.342,-0.231c0.097,-0 0.205,0.006 0.322,0.017c0.117,0.012 0.234,0.027 0.352,0.044c0.117,0.018 0.229,0.039 0.336,0.065c0.108,0.025 0.203,0.051 0.285,0.079l0.984,-0.217l0,8.396l-1.43,0Zm-2.42,-5.255c0,0.328 0.023,0.608 0.068,0.84c0.045,0.233 0.111,0.423 0.199,0.572c0.088,0.148 0.196,0.257 0.325,0.325c0.129,0.068 0.276,0.102 0.44,0.102c0.242,0 0.472,-0.097 0.691,-0.293c0.219,-0.195 0.451,-0.462 0.697,-0.802l0,-2.602c-0.113,-0.043 -0.253,-0.078 -0.419,-0.105c-0.166,-0.028 -0.333,-0.041 -0.501,-0.041c-0.23,-0 -0.437,0.047 -0.621,0.14c-0.183,0.094 -0.341,0.227 -0.471,0.399c-0.131,0.172 -0.232,0.382 -0.302,0.63c-0.07,0.248 -0.106,0.526 -0.106,0.835Z" style="fill:#fff;fill-rule:nonzero;"/><path d="M479.893,116.576l0,3.879c0,0.324 0.061,0.569 0.182,0.735c0.121,0.166 0.305,0.249 0.551,0.249c0.238,0 0.467,-0.098 0.688,-0.295c0.221,-0.198 0.454,-0.464 0.7,-0.8l0,-3.768l1.43,0l-0,5.953l-1.236,0l-0.036,-0.879c-0.125,0.153 -0.251,0.291 -0.38,0.416c-0.129,0.125 -0.269,0.232 -0.419,0.32c-0.151,0.088 -0.315,0.156 -0.493,0.205c-0.177,0.049 -0.374,0.073 -0.588,0.073c-0.305,0 -0.572,-0.05 -0.8,-0.149c-0.229,-0.1 -0.419,-0.242 -0.571,-0.425c-0.153,-0.184 -0.267,-0.403 -0.343,-0.659c-0.076,-0.256 -0.115,-0.542 -0.115,-0.859l0,-3.996l1.43,0Z" style="fill:#fff;fill-rule:nonzero;"/><path d="M490.258,119.096c0,0.097 -0.003,0.224 -0.008,0.381c-0.006,0.156 -0.015,0.302 -0.027,0.439l-3.914,0c0,0.262 0.04,0.492 0.12,0.691c0.08,0.2 0.194,0.367 0.34,0.501c0.147,0.135 0.322,0.238 0.527,0.308c0.206,0.07 0.433,0.105 0.683,0.105c0.289,0 0.599,-0.022 0.929,-0.067c0.33,-0.045 0.673,-0.118 1.028,-0.22l0,1.137c-0.152,0.043 -0.318,0.082 -0.498,0.117c-0.18,0.035 -0.363,0.067 -0.551,0.094c-0.187,0.027 -0.377,0.048 -0.568,0.062c-0.191,0.013 -0.377,0.02 -0.557,0.02c-0.453,0 -0.859,-0.064 -1.218,-0.193c-0.36,-0.129 -0.664,-0.32 -0.914,-0.572c-0.25,-0.252 -0.442,-0.563 -0.575,-0.934c-0.133,-0.371 -0.199,-0.801 -0.199,-1.289c0,-0.485 0.066,-0.925 0.199,-1.322c0.133,-0.396 0.321,-0.736 0.563,-1.019c0.242,-0.283 0.536,-0.502 0.882,-0.656c0.345,-0.155 0.731,-0.232 1.157,-0.232c0.422,0 0.795,0.066 1.119,0.197c0.324,0.13 0.596,0.313 0.814,0.547c0.219,0.235 0.385,0.514 0.498,0.838c0.114,0.325 0.17,0.68 0.17,1.067Zm-1.453,-0.205c0.004,-0.235 -0.025,-0.439 -0.088,-0.613c-0.062,-0.174 -0.147,-0.317 -0.254,-0.43c-0.108,-0.114 -0.233,-0.198 -0.375,-0.252c-0.143,-0.055 -0.296,-0.082 -0.46,-0.082c-0.36,-0 -0.655,0.12 -0.885,0.36c-0.231,0.24 -0.367,0.579 -0.41,1.017l2.472,-0Z" style="fill:#fff;fill-rule:nonzero;"/><path d="M495.221,122.529l0,-3.879c0,-0.652 -0.242,-0.978 -0.726,-0.978c-0.242,-0 -0.474,0.098 -0.695,0.293c-0.22,0.195 -0.454,0.461 -0.7,0.797l0,3.767l-1.429,0l-0,-5.953l1.236,0l0.035,0.879c0.121,-0.152 0.247,-0.291 0.378,-0.416c0.131,-0.125 0.272,-0.231 0.425,-0.319c0.152,-0.088 0.316,-0.156 0.492,-0.202c0.176,-0.047 0.373,-0.071 0.592,-0.071c0.304,0 0.57,0.05 0.797,0.15c0.226,0.099 0.416,0.24 0.568,0.422c0.152,0.181 0.267,0.4 0.343,0.656c0.076,0.256 0.114,0.542 0.114,0.858l-0,3.996l-1.43,0Z" style="fill:#fff;fill-rule:nonzero;"/><path d="M503.085,122.301c-0.282,0.113 -0.573,0.197 -0.873,0.252c-0.301,0.054 -0.616,0.082 -0.944,0.082c-0.472,-0 -0.896,-0.065 -1.271,-0.194c-0.375,-0.128 -0.694,-0.32 -0.955,-0.574c-0.262,-0.254 -0.462,-0.568 -0.601,-0.943c-0.139,-0.375 -0.208,-0.809 -0.208,-1.301c0,-0.477 0.075,-0.908 0.226,-1.295c0.15,-0.387 0.362,-0.717 0.635,-0.99c0.274,-0.274 0.603,-0.484 0.988,-0.633c0.384,-0.148 0.813,-0.223 1.286,-0.223c0.387,0 0.712,0.021 0.975,0.062c0.264,0.041 0.501,0.093 0.712,0.155l0,1.389c-0.242,-0.121 -0.505,-0.215 -0.788,-0.281c-0.283,-0.067 -0.552,-0.1 -0.805,-0.1c-0.266,0 -0.504,0.045 -0.715,0.135c-0.211,0.09 -0.389,0.215 -0.534,0.375c-0.144,0.16 -0.254,0.354 -0.331,0.583c-0.076,0.228 -0.114,0.479 -0.114,0.753c0,0.285 0.041,0.541 0.123,0.767c0.082,0.227 0.198,0.419 0.349,0.577c0.15,0.159 0.331,0.28 0.542,0.364c0.211,0.084 0.445,0.126 0.703,0.126c0.125,-0 0.257,-0.009 0.395,-0.027c0.139,-0.017 0.278,-0.043 0.416,-0.076c0.139,-0.033 0.276,-0.071 0.411,-0.114c0.134,-0.043 0.26,-0.09 0.378,-0.141l-0,1.272Z" style="fill:#fff;fill-rule:nonzero;"/><path d="M508.446,121.879c-0.207,0.516 -0.423,0.968 -0.648,1.356c-0.224,0.389 -0.471,0.713 -0.741,0.973c-0.269,0.26 -0.569,0.455 -0.899,0.586c-0.33,0.131 -0.7,0.196 -1.111,0.196c-0.097,0 -0.204,-0.005 -0.319,-0.014c-0.115,-0.01 -0.233,-0.025 -0.354,-0.044l-0,-1.213c0.047,0.008 0.1,0.016 0.161,0.026c0.06,0.01 0.124,0.018 0.19,0.024c0.067,0.005 0.134,0.01 0.202,0.014c0.069,0.004 0.132,0.006 0.191,0.006c0.164,0 0.316,-0.031 0.457,-0.094c0.14,-0.062 0.27,-0.149 0.389,-0.26c0.12,-0.112 0.228,-0.245 0.326,-0.399c0.097,-0.154 0.183,-0.323 0.257,-0.507l-2.361,-5.953l1.594,0l1.236,3.375l0.369,1.09l0.364,-1.043l1.248,-3.422l1.535,0l-2.086,5.303Z" style="fill:#fff;fill-rule:nonzero;"/><path d="M521.688,124.99c-0.949,-0.804 -1.661,-1.668 -2.136,-2.59c-0.474,-0.921 -0.712,-1.914 -0.712,-2.976c0,-0.594 0.071,-1.155 0.211,-1.685c0.141,-0.529 0.339,-1.026 0.595,-1.491c0.256,-0.465 0.561,-0.901 0.914,-1.31c0.354,-0.408 0.741,-0.79 1.163,-1.145l0.815,0.814c-0.762,0.684 -1.334,1.422 -1.717,2.215c-0.383,0.793 -0.574,1.627 -0.574,2.502c-0,0.887 0.191,1.739 0.574,2.558c0.383,0.818 0.955,1.565 1.717,2.241l-0.85,0.867Z" style="fill:#fff;fill-rule:nonzero;"/><path d="M528.444,122.529l-0,-3.334l-2.602,0l0,3.334l-1.441,0l-0,-7.658l1.441,0l0,3.076l2.602,0l-0,-3.076l1.441,0l0,7.658l-1.441,0Z" style="fill:#fff;fill-rule:nonzero;"/><path d="M531.321,122.529l-0,-0.996l2.912,-3.732l-2.842,-0l0,-1.225l4.729,0l-0,1.008l-2.848,3.686l2.895,-0l-0,1.259l-4.846,0Z" style="fill:#fff;fill-rule:nonzero;"/><path d="M539.225,113.793c0.957,0.797 1.67,1.657 2.139,2.581c0.469,0.924 0.703,1.919 0.703,2.985c0,0.594 -0.07,1.155 -0.211,1.682c-0.141,0.527 -0.337,1.025 -0.589,1.494c-0.252,0.469 -0.554,0.907 -0.905,1.316c-0.352,0.408 -0.738,0.788 -1.16,1.139l-0.821,-0.814c0.766,-0.684 1.34,-1.424 1.723,-2.221c0.383,-0.797 0.574,-1.633 0.574,-2.508c0,-0.883 -0.191,-1.734 -0.574,-2.554c-0.383,-0.821 -0.957,-1.571 -1.723,-2.25l0.844,-0.85Z" style="fill:#fff;fill-rule:nonzero;"/><path d="M735.495,93.866l-0.14,-4.33l-0.053,-1.728l-0.369,1.171l-0.85,2.608l-0.902,-0l-0.768,-2.608l-0.322,-1.171l-0.041,1.693l-0.129,4.365l-1.224,0l0.375,-7.658l1.629,0l0.673,2.174l0.323,1.224l0.322,-1.154l0.709,-2.244l1.658,0l0.381,7.658l-1.272,0Z" style="fill:#fff;fill-rule:nonzero;"/><path d="M741.349,86.284c-0,0.129 -0.023,0.25 -0.07,0.363c-0.047,0.114 -0.113,0.212 -0.197,0.296c-0.084,0.084 -0.182,0.151 -0.296,0.2c-0.113,0.048 -0.236,0.073 -0.369,0.073c-0.132,-0 -0.257,-0.025 -0.372,-0.073c-0.115,-0.049 -0.215,-0.116 -0.299,-0.2c-0.084,-0.084 -0.149,-0.182 -0.196,-0.296c-0.047,-0.113 -0.07,-0.234 -0.07,-0.363c-0,-0.129 0.023,-0.25 0.07,-0.363c0.047,-0.113 0.112,-0.213 0.196,-0.299c0.084,-0.086 0.184,-0.153 0.299,-0.202c0.115,-0.049 0.24,-0.073 0.372,-0.073c0.133,-0 0.256,0.024 0.369,0.073c0.114,0.049 0.212,0.116 0.296,0.202c0.084,0.086 0.15,0.186 0.197,0.299c0.047,0.113 0.07,0.234 0.07,0.363Zm-1.582,2.742l-1.682,0l0,-1.113l3.147,0l-0,4.84l1.717,-0l-0,1.113l-5.069,0l0,-1.113l1.887,-0l-0,-3.727Z" style="fill:#fff;fill-rule:nonzero;"/><path d="M748.275,93.866l-1.36,-2.004l-1.365,2.004l-1.728,0l2.232,-3l-2.115,-2.953l1.74,0l1.336,1.957l1.318,-1.957l1.606,0l-2.051,2.941l2.162,3.012l-1.775,0Z" style="fill:#fff;fill-rule:nonzero;"/><path d="M761.265,96.327c-0.949,-0.805 -1.661,-1.668 -2.136,-2.59c-0.474,-0.922 -0.712,-1.914 -0.712,-2.976c0,-0.594 0.071,-1.156 0.211,-1.685c0.141,-0.529 0.339,-1.026 0.595,-1.491c0.256,-0.465 0.561,-0.901 0.914,-1.31c0.354,-0.408 0.741,-0.79 1.163,-1.145l0.815,0.814c-0.762,0.684 -1.334,1.422 -1.717,2.215c-0.383,0.793 -0.574,1.627 -0.574,2.502c-0,0.887 0.191,1.739 0.574,2.558c0.383,0.818 0.955,1.565 1.717,2.241l-0.85,0.867Z" style="fill:#fff;fill-rule:nonzero;"/><path d="M764.587,93.866l-1.166,0l5.438,-8.279l1.16,-0l-5.432,8.279Zm2.221,-6.621c-0,0.262 -0.037,0.503 -0.111,0.724c-0.075,0.22 -0.181,0.412 -0.32,0.574c-0.138,0.162 -0.308,0.288 -0.509,0.378c-0.202,0.09 -0.429,0.135 -0.683,0.135c-0.496,-0 -0.882,-0.149 -1.157,-0.446c-0.276,-0.297 -0.413,-0.736 -0.413,-1.318c-0,-0.262 0.036,-0.503 0.108,-0.724c0.072,-0.22 0.178,-0.412 0.316,-0.574c0.139,-0.162 0.309,-0.289 0.51,-0.381c0.201,-0.092 0.429,-0.137 0.683,-0.137c0.496,-0 0.883,0.148 1.16,0.445c0.277,0.297 0.416,0.738 0.416,1.324Zm-1.043,0.024c-0,-0.309 -0.047,-0.537 -0.141,-0.683c-0.093,-0.147 -0.232,-0.22 -0.416,-0.22c-0.367,0 -0.55,0.301 -0.55,0.903c-0,0.304 0.046,0.53 0.14,0.676c0.094,0.147 0.231,0.22 0.41,0.22c0.371,0 0.557,-0.299 0.557,-0.896Zm4.066,4.892c0,0.262 -0.037,0.503 -0.111,0.724c-0.074,0.22 -0.181,0.412 -0.319,0.574c-0.139,0.162 -0.309,0.288 -0.51,0.378c-0.201,0.09 -0.429,0.135 -0.683,0.135c-0.496,-0 -0.881,-0.148 -1.157,-0.443c-0.275,-0.295 -0.413,-0.735 -0.413,-1.321c0,-0.266 0.036,-0.509 0.108,-0.729c0.073,-0.221 0.178,-0.412 0.317,-0.572c0.139,-0.16 0.308,-0.286 0.51,-0.378c0.201,-0.092 0.428,-0.137 0.682,-0.137c0.496,-0 0.883,0.148 1.16,0.445c0.278,0.297 0.416,0.738 0.416,1.324Zm-1.043,0.024c0,-0.309 -0.046,-0.537 -0.14,-0.683c-0.094,-0.147 -0.233,-0.22 -0.416,-0.22c-0.367,0 -0.551,0.301 -0.551,0.903c-0,0.308 0.047,0.535 0.141,0.679c0.093,0.145 0.23,0.217 0.41,0.217c0.371,0 0.556,-0.299 0.556,-0.896Z" style="fill:#fff;fill-rule:nonzero;"/><path d="M772.204,85.13c0.957,0.797 1.67,1.657 2.139,2.581c0.469,0.924 0.703,1.919 0.703,2.985c0,0.594 -0.07,1.155 -0.211,1.682c-0.14,0.527 -0.337,1.025 -0.589,1.494c-0.252,0.469 -0.553,0.907 -0.905,1.315c-0.351,0.409 -0.738,0.789 -1.16,1.14l-0.82,-0.814c0.765,-0.684 1.34,-1.424 1.722,-2.221c0.383,-0.797 0.575,-1.633 0.575,-2.508c-0,-0.883 -0.192,-1.734 -0.575,-2.555c-0.382,-0.82 -0.957,-1.57 -1.722,-2.25l0.843,-0.849Z" style="fill:#fff;fill-rule:nonzero;"/><path d="M794.099,93.866l-0,-7.658l1.465,0l-0,6.422l3.234,-0l0,1.236l-4.699,0Z" style="fill:#fff;fill-rule:nonzero;"/><path d="M805.542,90.433c0,0.097 -0.003,0.224 -0.009,0.38c-0.006,0.157 -0.014,0.303 -0.026,0.44l-3.914,-0c-0,0.262 0.04,0.492 0.12,0.691c0.08,0.2 0.193,0.367 0.34,0.501c0.146,0.135 0.322,0.238 0.527,0.308c0.205,0.07 0.433,0.105 0.683,0.105c0.289,0 0.598,-0.022 0.929,-0.067c0.33,-0.045 0.672,-0.118 1.028,-0.22l-0,1.137c-0.152,0.043 -0.318,0.082 -0.498,0.117c-0.18,0.035 -0.363,0.067 -0.551,0.094c-0.187,0.027 -0.377,0.048 -0.568,0.061c-0.192,0.014 -0.377,0.021 -0.557,0.021c-0.453,-0 -0.859,-0.064 -1.219,-0.193c-0.359,-0.129 -0.664,-0.32 -0.914,-0.572c-0.25,-0.252 -0.441,-0.563 -0.574,-0.934c-0.133,-0.371 -0.199,-0.801 -0.199,-1.289c-0,-0.485 0.066,-0.925 0.199,-1.322c0.133,-0.396 0.32,-0.736 0.563,-1.019c0.242,-0.283 0.536,-0.502 0.881,-0.656c0.346,-0.155 0.732,-0.232 1.158,-0.232c0.421,0 0.795,0.066 1.119,0.196c0.324,0.131 0.595,0.314 0.814,0.548c0.219,0.235 0.385,0.514 0.498,0.838c0.114,0.324 0.17,0.68 0.17,1.067Zm-1.453,-0.205c0.004,-0.235 -0.025,-0.439 -0.088,-0.613c-0.062,-0.174 -0.147,-0.317 -0.255,-0.43c-0.107,-0.114 -0.232,-0.198 -0.375,-0.252c-0.142,-0.055 -0.296,-0.082 -0.46,-0.082c-0.359,-0 -0.654,0.12 -0.884,0.36c-0.231,0.24 -0.368,0.579 -0.411,1.017l2.473,-0Z" style="fill:#fff;fill-rule:nonzero;"/><path d="M810.282,93.866l-1.646,0l-2.361,-5.953l1.593,0l1.237,3.375l0.369,1.09l0.363,-1.043l1.248,-3.422l1.535,0l-2.338,5.953Z" style="fill:#fff;fill-rule:nonzero;"/><path d="M818.737,90.433c0,0.097 -0.002,0.224 -0.008,0.38c-0.006,0.157 -0.015,0.303 -0.027,0.44l-3.914,-0c0,0.262 0.04,0.492 0.12,0.691c0.08,0.2 0.194,0.367 0.34,0.501c0.147,0.135 0.322,0.238 0.528,0.308c0.205,0.07 0.432,0.105 0.682,0.105c0.289,0 0.599,-0.022 0.929,-0.067c0.33,-0.045 0.673,-0.118 1.028,-0.22l0,1.137c-0.152,0.043 -0.318,0.082 -0.498,0.117c-0.18,0.035 -0.363,0.067 -0.551,0.094c-0.187,0.027 -0.377,0.048 -0.568,0.061c-0.191,0.014 -0.377,0.021 -0.557,0.021c-0.453,-0 -0.859,-0.064 -1.218,-0.193c-0.36,-0.129 -0.664,-0.32 -0.914,-0.572c-0.25,-0.252 -0.442,-0.563 -0.575,-0.934c-0.132,-0.371 -0.199,-0.801 -0.199,-1.289c0,-0.485 0.067,-0.925 0.199,-1.322c0.133,-0.396 0.321,-0.736 0.563,-1.019c0.242,-0.283 0.536,-0.502 0.882,-0.656c0.345,-0.155 0.731,-0.232 1.157,-0.232c0.422,0 0.795,0.066 1.119,0.196c0.324,0.131 0.596,0.314 0.814,0.548c0.219,0.235 0.385,0.514 0.499,0.838c0.113,0.324 0.169,0.68 0.169,1.067Zm-1.453,-0.205c0.004,-0.235 -0.025,-0.439 -0.088,-0.613c-0.062,-0.174 -0.147,-0.317 -0.254,-0.43c-0.108,-0.114 -0.233,-0.198 -0.375,-0.252c-0.143,-0.055 -0.296,-0.082 -0.46,-0.082c-0.36,-0 -0.655,0.12 -0.885,0.36c-0.231,0.24 -0.367,0.579 -0.41,1.017l2.472,-0Z" style="fill:#fff;fill-rule:nonzero;"/><path d="M822.071,86.7l-1.681,0l-0,-1.113l3.146,-0l0,7.166l1.717,-0l0,1.113l-5.068,0l-0,-1.113l1.886,-0l0,-6.053Z" style="fill:#fff;fill-rule:nonzero;"/><path d="M836.972,96.327c-0.949,-0.805 -1.661,-1.668 -2.136,-2.59c-0.475,-0.922 -0.712,-1.914 -0.712,-2.976c0,-0.594 0.07,-1.156 0.211,-1.685c0.141,-0.529 0.339,-1.026 0.595,-1.491c0.256,-0.465 0.56,-0.901 0.914,-1.31c0.353,-0.408 0.741,-0.79 1.163,-1.145l0.814,0.814c-0.761,0.684 -1.334,1.422 -1.716,2.215c-0.383,0.793 -0.575,1.627 -0.575,2.502c0,0.887 0.192,1.739 0.575,2.558c0.382,0.818 0.955,1.565 1.716,2.241l-0.849,0.867Z" style="fill:#fff;fill-rule:nonzero;"/><path d="M843.687,93.866l-0.035,-0.879c-0.125,0.153 -0.254,0.291 -0.387,0.416c-0.133,0.125 -0.276,0.232 -0.428,0.32c-0.152,0.088 -0.315,0.156 -0.489,0.205c-0.174,0.049 -0.366,0.073 -0.577,0.073c-0.352,-0 -0.664,-0.07 -0.938,-0.211c-0.273,-0.141 -0.503,-0.341 -0.688,-0.601c-0.186,-0.259 -0.327,-0.575 -0.425,-0.946c-0.098,-0.371 -0.147,-0.785 -0.147,-1.242c0,-0.547 0.078,-1.021 0.232,-1.421c0.154,-0.4 0.368,-0.732 0.641,-0.996c0.274,-0.264 0.598,-0.459 0.973,-0.586c0.375,-0.127 0.783,-0.19 1.225,-0.19c0.148,-0 0.298,0.009 0.448,0.029c0.15,0.019 0.284,0.045 0.401,0.076l0,-2.326l1.43,-0l0,8.279l-1.236,0Zm-2.614,-2.929c0,0.328 0.023,0.608 0.068,0.84c0.045,0.233 0.111,0.423 0.199,0.572c0.088,0.148 0.196,0.256 0.325,0.325c0.129,0.068 0.276,0.102 0.44,0.102c0.242,0 0.472,-0.097 0.691,-0.293c0.219,-0.195 0.451,-0.462 0.697,-0.802l0,-2.602c-0.113,-0.043 -0.253,-0.078 -0.419,-0.105c-0.166,-0.028 -0.333,-0.041 -0.501,-0.041c-0.23,-0 -0.437,0.046 -0.621,0.14c-0.183,0.094 -0.341,0.227 -0.471,0.399c-0.131,0.172 -0.232,0.382 -0.302,0.63c-0.07,0.248 -0.106,0.526 -0.106,0.835Z" style="fill:#fff;fill-rule:nonzero;"/><path d="M846.482,93.866l-0,-7.658l2.472,0c0.871,0 1.525,0.152 1.96,0.457c0.436,0.305 0.654,0.766 0.654,1.383c-0,0.191 -0.023,0.378 -0.068,0.559c-0.045,0.182 -0.114,0.349 -0.208,0.501c-0.094,0.153 -0.211,0.288 -0.351,0.405c-0.141,0.117 -0.307,0.209 -0.498,0.275c0.191,0.031 0.374,0.093 0.547,0.185c0.174,0.091 0.327,0.211 0.457,0.357c0.131,0.147 0.235,0.319 0.311,0.519c0.076,0.199 0.114,0.422 0.114,0.668c0,0.781 -0.261,1.368 -0.785,1.76c-0.523,0.393 -1.279,0.589 -2.268,0.589l-2.337,0Zm3.586,-5.566c-0,-0.145 -0.024,-0.276 -0.071,-0.393c-0.047,-0.117 -0.122,-0.217 -0.225,-0.299c-0.104,-0.082 -0.237,-0.145 -0.399,-0.19c-0.162,-0.045 -0.358,-0.067 -0.589,-0.067l-0.873,-0l0,2.027l0.873,-0c0.235,-0 0.433,-0.028 0.595,-0.085c0.162,-0.057 0.295,-0.135 0.398,-0.234c0.104,-0.1 0.178,-0.214 0.223,-0.343c0.045,-0.129 0.068,-0.268 0.068,-0.416Zm-1.149,4.388c0.231,0 0.433,-0.029 0.607,-0.087c0.173,-0.059 0.319,-0.14 0.436,-0.244c0.117,-0.103 0.206,-0.225 0.267,-0.366c0.06,-0.14 0.09,-0.291 0.09,-0.451c0,-0.332 -0.124,-0.592 -0.372,-0.779c-0.248,-0.188 -0.628,-0.282 -1.139,-0.282l-0.897,0l0,2.209l1.008,0Z" style="fill:#fff;fill-rule:nonzero;"/><path d="M854.509,85.13c0.957,0.797 1.67,1.657 2.139,2.581c0.468,0.924 0.703,1.919 0.703,2.985c-0,0.594 -0.071,1.155 -0.211,1.682c-0.141,0.527 -0.337,1.025 -0.589,1.494c-0.252,0.469 -0.554,0.907 -0.905,1.315c-0.352,0.409 -0.739,0.789 -1.16,1.14l-0.821,-0.814c0.766,-0.684 1.34,-1.424 1.723,-2.221c0.383,-0.797 0.574,-1.633 0.574,-2.508c0,-0.883 -0.191,-1.734 -0.574,-2.555c-0.383,-0.82 -0.957,-1.57 -1.723,-2.25l0.844,-0.849Z" style="fill:#fff;fill-rule:nonzero;"/><path d="M277.477,141.328c-0.785,-0.144 -1.371,-0.537 -1.758,-1.178c-0.387,-0.64 -0.58,-1.519 -0.58,-2.636c-0,-0.692 0.081,-1.29 0.243,-1.796c0.162,-0.506 0.385,-0.924 0.668,-1.254c0.283,-0.33 0.615,-0.576 0.996,-0.738c0.381,-0.163 0.788,-0.244 1.222,-0.244c1.008,0 1.765,0.332 2.273,0.997c0.508,0.664 0.762,1.623 0.762,2.876c-0,0.598 -0.061,1.127 -0.182,1.588c-0.121,0.461 -0.292,0.856 -0.512,1.184c-0.221,0.328 -0.482,0.592 -0.783,0.791c-0.3,0.199 -0.627,0.336 -0.978,0.41c0.031,0.188 0.083,0.342 0.155,0.463c0.072,0.121 0.158,0.217 0.258,0.287c0.1,0.07 0.208,0.119 0.325,0.147c0.117,0.027 0.238,0.041 0.363,0.041c0.168,-0 0.335,-0.036 0.501,-0.106c0.166,-0.07 0.316,-0.168 0.449,-0.293l0.662,0.985c-0.246,0.207 -0.515,0.365 -0.806,0.474c-0.291,0.11 -0.583,0.164 -0.876,0.164c-0.367,0 -0.696,-0.043 -0.987,-0.129c-0.291,-0.086 -0.539,-0.217 -0.744,-0.395c-0.205,-0.178 -0.365,-0.403 -0.478,-0.674c-0.113,-0.271 -0.178,-0.593 -0.193,-0.964Zm2.302,-3.849c0,-0.907 -0.119,-1.583 -0.357,-2.028c-0.238,-0.445 -0.631,-0.668 -1.178,-0.668c-0.277,0 -0.515,0.058 -0.715,0.173c-0.199,0.115 -0.363,0.285 -0.492,0.51c-0.129,0.224 -0.223,0.5 -0.284,0.826c-0.06,0.326 -0.091,0.698 -0.091,1.116c0,0.899 0.122,1.572 0.367,2.022c0.244,0.449 0.641,0.674 1.192,0.674c0.277,-0 0.515,-0.058 0.712,-0.173c0.197,-0.116 0.358,-0.285 0.483,-0.507c0.125,-0.223 0.217,-0.497 0.276,-0.823c0.058,-0.327 0.087,-0.701 0.087,-1.122Z" style="fill:#fff;fill-rule:nonzero;"/><path d="M582.605,139.122c-0.785,-0.144 -1.371,-0.537 -1.758,-1.178c-0.386,-0.64 -0.58,-1.519 -0.58,-2.636c0,-0.692 0.081,-1.29 0.244,-1.796c0.162,-0.506 0.384,-0.924 0.668,-1.254c0.283,-0.33 0.615,-0.576 0.996,-0.738c0.381,-0.163 0.788,-0.244 1.221,-0.244c1.008,0 1.766,0.332 2.274,0.996c0.508,0.665 0.761,1.624 0.761,2.877c0,0.598 -0.06,1.127 -0.181,1.588c-0.121,0.461 -0.292,0.856 -0.513,1.184c-0.221,0.328 -0.481,0.592 -0.782,0.791c-0.301,0.199 -0.627,0.336 -0.979,0.41c0.032,0.188 0.083,0.342 0.156,0.463c0.072,0.121 0.158,0.217 0.257,0.287c0.1,0.07 0.208,0.119 0.326,0.147c0.117,0.027 0.238,0.041 0.363,0.041c0.168,-0 0.335,-0.036 0.501,-0.106c0.166,-0.07 0.315,-0.168 0.448,-0.293l0.662,0.985c-0.246,0.207 -0.514,0.365 -0.805,0.474c-0.291,0.109 -0.583,0.164 -0.876,0.164c-0.368,0 -0.697,-0.043 -0.988,-0.129c-0.291,-0.086 -0.539,-0.218 -0.744,-0.395c-0.205,-0.178 -0.364,-0.403 -0.477,-0.674c-0.114,-0.272 -0.178,-0.593 -0.194,-0.964Zm2.303,-3.85c0,-0.906 -0.119,-1.582 -0.357,-2.027c-0.239,-0.445 -0.631,-0.668 -1.178,-0.668c-0.277,0 -0.516,0.058 -0.715,0.173c-0.199,0.115 -0.363,0.285 -0.492,0.51c-0.129,0.224 -0.224,0.5 -0.284,0.826c-0.061,0.326 -0.091,0.698 -0.091,1.116c-0,0.899 0.122,1.572 0.366,2.022c0.244,0.449 0.642,0.673 1.192,0.673c0.278,0 0.515,-0.057 0.712,-0.172c0.198,-0.116 0.359,-0.285 0.484,-0.507c0.125,-0.223 0.217,-0.497 0.275,-0.823c0.059,-0.327 0.088,-0.701 0.088,-1.123Z" style="fill:#fff;fill-rule:nonzero;"/><path d="M386.88,118.211c-0,0.695 -0.081,1.295 -0.243,1.799c-0.163,0.504 -0.385,0.918 -0.668,1.242c-0.284,0.324 -0.616,0.564 -0.996,0.721c-0.381,0.156 -0.789,0.234 -1.222,0.234c-1.008,0 -1.766,-0.335 -2.274,-1.005c-0.507,-0.67 -0.761,-1.643 -0.761,-2.921c-0,-0.695 0.081,-1.295 0.243,-1.799c0.162,-0.503 0.385,-0.918 0.668,-1.242c0.283,-0.324 0.615,-0.564 0.996,-0.72c0.381,-0.157 0.788,-0.235 1.222,-0.235c1.007,0 1.765,0.334 2.273,1.002c0.508,0.668 0.762,1.643 0.762,2.924Zm-1.524,0.07c0,-0.906 -0.121,-1.582 -0.363,-2.027c-0.242,-0.445 -0.641,-0.668 -1.195,-0.668c-0.278,-0 -0.514,0.058 -0.709,0.173c-0.196,0.115 -0.357,0.284 -0.484,0.507c-0.127,0.222 -0.219,0.497 -0.278,0.823c-0.059,0.326 -0.088,0.7 -0.088,1.122c0,0.906 0.122,1.582 0.366,2.027c0.244,0.446 0.642,0.668 1.193,0.668c0.277,0 0.514,-0.057 0.712,-0.173c0.197,-0.115 0.358,-0.284 0.483,-0.506c0.125,-0.223 0.217,-0.498 0.275,-0.824c0.059,-0.326 0.088,-0.7 0.088,-1.122Z" style="fill:#fff;fill-rule:nonzero;"/><path d="M391.743,118.434c0.008,-0.223 -0.003,-0.413 -0.032,-0.569c-0.03,-0.156 -0.076,-0.285 -0.141,-0.386c-0.064,-0.102 -0.143,-0.176 -0.237,-0.223c-0.094,-0.047 -0.201,-0.07 -0.322,-0.07c-0.211,-0 -0.429,0.086 -0.654,0.26c-0.224,0.174 -0.471,0.46 -0.741,0.859l0,3.767l-1.465,0l0,-5.953l1.295,0l0.053,0.867c0.098,-0.152 0.208,-0.289 0.331,-0.41c0.123,-0.121 0.26,-0.225 0.41,-0.313c0.15,-0.088 0.317,-0.156 0.501,-0.202c0.184,-0.047 0.385,-0.071 0.604,-0.071c0.3,0 0.567,0.052 0.799,0.156c0.233,0.103 0.428,0.256 0.586,0.459c0.159,0.204 0.276,0.458 0.352,0.765c0.076,0.307 0.108,0.661 0.097,1.064l-1.436,-0Z" style="fill:#fff;fill-rule:nonzero;"/><path d="M398.253,122.072l-0.035,-0.879c-0.125,0.153 -0.254,0.291 -0.387,0.416c-0.133,0.125 -0.275,0.232 -0.428,0.32c-0.152,0.088 -0.315,0.156 -0.489,0.205c-0.174,0.049 -0.366,0.073 -0.577,0.073c-0.352,0 -0.664,-0.07 -0.938,-0.211c-0.273,-0.141 -0.503,-0.341 -0.688,-0.6c-0.186,-0.26 -0.327,-0.576 -0.425,-0.947c-0.098,-0.371 -0.147,-0.785 -0.147,-1.242c0,-0.547 0.078,-1.02 0.232,-1.421c0.154,-0.4 0.368,-0.732 0.642,-0.996c0.273,-0.264 0.597,-0.459 0.972,-0.586c0.375,-0.127 0.783,-0.19 1.225,-0.19c0.148,-0 0.298,0.009 0.448,0.029c0.15,0.019 0.284,0.045 0.401,0.076l0,-2.326l1.43,-0l0,8.279l-1.236,0Zm-2.614,-2.929c0,0.328 0.023,0.608 0.068,0.84c0.045,0.233 0.111,0.423 0.199,0.572c0.088,0.148 0.196,0.257 0.325,0.325c0.129,0.068 0.276,0.102 0.44,0.102c0.242,0 0.472,-0.097 0.691,-0.293c0.219,-0.195 0.451,-0.462 0.697,-0.802l0,-2.602c-0.113,-0.043 -0.253,-0.078 -0.419,-0.105c-0.166,-0.028 -0.333,-0.041 -0.501,-0.041c-0.23,-0 -0.437,0.047 -0.621,0.14c-0.183,0.094 -0.34,0.227 -0.471,0.399c-0.131,0.172 -0.232,0.382 -0.302,0.63c-0.07,0.248 -0.106,0.526 -0.106,0.835Z" style="fill:#fff;fill-rule:nonzero;"/><path d="M406.292,118.639c-0,0.097 -0.003,0.224 -0.009,0.381c-0.006,0.156 -0.015,0.302 -0.026,0.439l-3.914,-0c-0,0.262 0.04,0.492 0.12,0.691c0.08,0.2 0.193,0.367 0.34,0.501c0.146,0.135 0.322,0.238 0.527,0.308c0.205,0.07 0.433,0.105 0.683,0.105c0.289,0 0.598,-0.022 0.928,-0.067c0.33,-0.045 0.673,-0.118 1.029,-0.22l-0,1.137c-0.153,0.043 -0.319,0.082 -0.498,0.117c-0.18,0.035 -0.364,0.067 -0.551,0.094c-0.188,0.027 -0.377,0.048 -0.569,0.062c-0.191,0.013 -0.377,0.02 -0.556,0.02c-0.453,0 -0.86,-0.064 -1.219,-0.193c-0.359,-0.129 -0.664,-0.32 -0.914,-0.572c-0.25,-0.252 -0.441,-0.563 -0.574,-0.934c-0.133,-0.371 -0.2,-0.801 -0.2,-1.289c0,-0.485 0.067,-0.925 0.2,-1.322c0.133,-0.396 0.32,-0.736 0.562,-1.019c0.242,-0.283 0.536,-0.502 0.882,-0.656c0.346,-0.155 0.731,-0.232 1.157,-0.232c0.422,0 0.795,0.066 1.119,0.197c0.325,0.13 0.596,0.313 0.815,0.547c0.219,0.235 0.385,0.514 0.498,0.838c0.113,0.324 0.17,0.68 0.17,1.067Zm-1.453,-0.205c0.004,-0.235 -0.026,-0.439 -0.088,-0.613c-0.063,-0.174 -0.148,-0.317 -0.255,-0.43c-0.107,-0.114 -0.232,-0.198 -0.375,-0.252c-0.143,-0.055 -0.296,-0.082 -0.46,-0.082c-0.359,-0 -0.654,0.12 -0.885,0.36c-0.23,0.24 -0.367,0.579 -0.41,1.017l2.473,-0Z" style="fill:#fff;fill-rule:nonzero;"/><path d="M411.536,118.434c0.008,-0.223 -0.003,-0.413 -0.032,-0.569c-0.03,-0.156 -0.076,-0.285 -0.141,-0.386c-0.064,-0.102 -0.143,-0.176 -0.237,-0.223c-0.094,-0.047 -0.201,-0.07 -0.322,-0.07c-0.211,-0 -0.429,0.086 -0.654,0.26c-0.224,0.174 -0.471,0.46 -0.741,0.859l0,3.767l-1.465,0l0,-5.953l1.295,0l0.053,0.867c0.097,-0.152 0.208,-0.289 0.331,-0.41c0.123,-0.121 0.26,-0.225 0.41,-0.313c0.15,-0.088 0.317,-0.156 0.501,-0.202c0.184,-0.047 0.385,-0.071 0.604,-0.071c0.3,0 0.567,0.052 0.799,0.156c0.233,0.103 0.428,0.256 0.586,0.459c0.158,0.204 0.276,0.458 0.352,0.765c0.076,0.307 0.108,0.661 0.097,1.064l-1.436,-0Z" style="fill:#fff;fill-rule:nonzero;"/><path d="M59.805,204.766l-4.81,-0l-0,-0.95l1.968,0l0,-5.59l-1.834,0.997l-0.375,-0.868l2.438,-1.283l0.902,0l0,6.744l1.711,0l0,0.95Z" style="fill:#fff;fill-rule:nonzero;"/><path d="M125.065,204.824l-5.045,0l0,-0.914l1.981,-1.969c0.324,-0.32 0.587,-0.597 0.791,-0.832c0.203,-0.234 0.361,-0.448 0.474,-0.641c0.113,-0.194 0.19,-0.376 0.229,-0.548c0.039,-0.172 0.058,-0.358 0.058,-0.557c0,-0.187 -0.025,-0.366 -0.076,-0.536c-0.051,-0.17 -0.129,-0.319 -0.234,-0.448c-0.106,-0.129 -0.242,-0.231 -0.41,-0.305c-0.168,-0.074 -0.37,-0.111 -0.604,-0.111c-0.324,-0 -0.619,0.072 -0.885,0.217c-0.265,0.144 -0.509,0.332 -0.732,0.562l-0.563,-0.674c0.289,-0.304 0.622,-0.549 0.999,-0.732c0.377,-0.184 0.816,-0.276 1.316,-0.276c0.34,0 0.649,0.051 0.929,0.153c0.279,0.101 0.52,0.248 0.723,0.439c0.203,0.192 0.361,0.426 0.472,0.703c0.111,0.278 0.167,0.59 0.167,0.938c-0,0.293 -0.039,0.564 -0.117,0.814c-0.078,0.25 -0.197,0.499 -0.355,0.747c-0.158,0.248 -0.357,0.505 -0.597,0.771c-0.241,0.266 -0.525,0.557 -0.853,0.873l-1.389,1.353l3.721,0l-0,0.973Z" style="fill:#fff;fill-rule:nonzero;"/><path d="M131.469,202.375c0,0.379 -0.082,0.725 -0.246,1.037c-0.164,0.313 -0.389,0.581 -0.677,0.806c-0.287,0.224 -0.626,0.399 -1.016,0.524c-0.391,0.125 -0.813,0.188 -1.266,0.188c-0.113,-0 -0.235,-0.003 -0.366,-0.009c-0.131,-0.006 -0.261,-0.014 -0.39,-0.024c-0.129,-0.009 -0.255,-0.02 -0.378,-0.032c-0.123,-0.012 -0.233,-0.025 -0.331,-0.041l0,-0.926c0.211,0.051 0.453,0.088 0.724,0.112c0.271,0.023 0.546,0.035 0.823,0.035c0.313,-0 0.594,-0.037 0.844,-0.112c0.25,-0.074 0.463,-0.18 0.639,-0.319c0.175,-0.139 0.31,-0.306 0.404,-0.504c0.094,-0.197 0.141,-0.419 0.141,-0.665c-0,-0.476 -0.171,-0.823 -0.513,-1.04c-0.342,-0.217 -0.833,-0.325 -1.474,-0.325l-1.453,-0l0,-3.914l4.125,-0l0,0.891l-3.164,-0l0,2.15l0.668,-0c0.367,-0 0.725,0.033 1.072,0.1c0.348,0.066 0.658,0.182 0.929,0.348c0.272,0.166 0.49,0.389 0.656,0.668c0.166,0.279 0.249,0.63 0.249,1.052Z" style="fill:#fff;fill-rule:nonzero;"/><path d="M138.354,202.398c0,0.352 -0.063,0.682 -0.19,0.991c-0.127,0.308 -0.308,0.577 -0.542,0.805c-0.235,0.229 -0.517,0.408 -0.847,0.539c-0.33,0.131 -0.696,0.197 -1.099,0.197c-0.422,-0 -0.795,-0.068 -1.119,-0.203c-0.324,-0.134 -0.596,-0.341 -0.814,-0.621c-0.219,-0.279 -0.385,-0.631 -0.498,-1.057c-0.114,-0.426 -0.17,-0.93 -0.17,-1.512c-0,-0.391 0.025,-0.77 0.076,-1.137c0.051,-0.367 0.135,-0.713 0.252,-1.037c0.117,-0.324 0.273,-0.621 0.469,-0.89c0.195,-0.27 0.438,-0.501 0.729,-0.695c0.291,-0.193 0.634,-0.344 1.028,-0.451c0.395,-0.107 0.852,-0.161 1.372,-0.161l0.755,-0l0,0.891l-0.82,-0c-0.457,-0 -0.853,0.054 -1.189,0.164c-0.336,0.109 -0.618,0.263 -0.844,0.462c-0.227,0.2 -0.401,0.44 -0.522,0.721c-0.121,0.281 -0.197,0.596 -0.228,0.944l-0.024,0.24c0.247,-0.145 0.531,-0.261 0.853,-0.349c0.322,-0.088 0.671,-0.132 1.046,-0.132c0.387,0 0.725,0.057 1.016,0.17c0.292,0.114 0.534,0.271 0.727,0.472c0.193,0.201 0.339,0.442 0.437,0.724c0.097,0.281 0.146,0.589 0.146,0.925Zm-1.066,0.065c-0,-0.235 -0.029,-0.446 -0.085,-0.636c-0.057,-0.189 -0.146,-0.35 -0.267,-0.48c-0.121,-0.131 -0.274,-0.233 -0.46,-0.305c-0.185,-0.072 -0.407,-0.109 -0.665,-0.109c-0.148,0 -0.299,0.014 -0.451,0.042c-0.152,0.027 -0.302,0.065 -0.448,0.114c-0.147,0.049 -0.286,0.104 -0.419,0.167c-0.133,0.062 -0.254,0.129 -0.364,0.199c0,0.504 0.036,0.925 0.106,1.263c0.07,0.338 0.175,0.608 0.313,0.811c0.139,0.203 0.31,0.348 0.513,0.434c0.203,0.086 0.438,0.129 0.703,0.129c0.223,-0 0.427,-0.036 0.613,-0.109c0.185,-0.072 0.345,-0.178 0.48,-0.319c0.135,-0.141 0.24,-0.312 0.316,-0.513c0.077,-0.201 0.115,-0.43 0.115,-0.688Z" style="fill:#fff;fill-rule:nonzero;"/><path d="M155.358,204.824l-5.045,0l-0,-0.914l1.98,-1.969c0.325,-0.32 0.588,-0.597 0.791,-0.832c0.204,-0.234 0.362,-0.448 0.475,-0.641c0.113,-0.194 0.19,-0.376 0.229,-0.548c0.039,-0.172 0.058,-0.358 0.058,-0.557c0,-0.187 -0.025,-0.366 -0.076,-0.536c-0.051,-0.17 -0.129,-0.319 -0.234,-0.448c-0.106,-0.129 -0.243,-0.231 -0.411,-0.305c-0.167,-0.074 -0.369,-0.111 -0.603,-0.111c-0.324,-0 -0.619,0.072 -0.885,0.217c-0.265,0.144 -0.51,0.332 -0.732,0.562l-0.563,-0.674c0.289,-0.304 0.622,-0.549 0.999,-0.732c0.377,-0.184 0.816,-0.276 1.316,-0.276c0.34,0 0.649,0.051 0.928,0.153c0.28,0.101 0.521,0.248 0.724,0.439c0.203,0.192 0.36,0.426 0.472,0.703c0.111,0.278 0.167,0.59 0.167,0.938c-0,0.293 -0.039,0.564 -0.117,0.814c-0.079,0.25 -0.197,0.499 -0.355,0.747c-0.158,0.248 -0.357,0.505 -0.598,0.771c-0.24,0.266 -0.524,0.557 -0.852,0.873l-1.389,1.353l3.721,0l-0,0.973Z" style="fill:#fff;fill-rule:nonzero;"/><path d="M162.131,200.998c0,0.586 -0.058,1.12 -0.175,1.602c-0.118,0.483 -0.295,0.897 -0.534,1.243c-0.238,0.345 -0.534,0.613 -0.887,0.802c-0.354,0.19 -0.769,0.285 -1.245,0.285c-0.411,-0 -0.784,-0.078 -1.12,-0.232c-0.336,-0.154 -0.623,-0.391 -0.861,-0.712c-0.238,-0.32 -0.422,-0.728 -0.551,-1.224c-0.129,-0.496 -0.193,-1.084 -0.193,-1.764c-0,-0.586 0.06,-1.121 0.179,-1.606c0.119,-0.484 0.297,-0.899 0.533,-1.245c0.236,-0.345 0.532,-0.613 0.888,-0.802c0.355,-0.19 0.769,-0.285 1.242,-0.285c0.41,0 0.783,0.078 1.119,0.232c0.336,0.154 0.623,0.392 0.861,0.715c0.238,0.322 0.422,0.731 0.551,1.227c0.129,0.496 0.193,1.084 0.193,1.764Zm-1.031,0.035c0,-0.133 -0.005,-0.265 -0.015,-0.395c-0.009,-0.131 -0.02,-0.259 -0.032,-0.384l-3.24,2.408c0.059,0.203 0.133,0.391 0.223,0.563c0.089,0.171 0.198,0.319 0.325,0.442c0.127,0.123 0.271,0.219 0.433,0.287c0.163,0.068 0.347,0.103 0.554,0.103c0.266,-0 0.507,-0.065 0.724,-0.194c0.217,-0.129 0.401,-0.32 0.553,-0.574c0.153,-0.254 0.27,-0.569 0.352,-0.946c0.082,-0.377 0.123,-0.814 0.123,-1.31Zm-3.504,-0.07c0,0.121 0.001,0.242 0.003,0.363c0.002,0.121 0.009,0.238 0.021,0.352l3.24,-2.397c-0.059,-0.199 -0.133,-0.381 -0.223,-0.545c-0.09,-0.164 -0.197,-0.305 -0.322,-0.425c-0.125,-0.119 -0.268,-0.211 -0.428,-0.278c-0.16,-0.066 -0.34,-0.1 -0.539,-0.1c-0.265,0 -0.507,0.065 -0.723,0.194c-0.217,0.129 -0.402,0.321 -0.554,0.577c-0.153,0.256 -0.27,0.572 -0.352,0.949c-0.082,0.377 -0.123,0.814 -0.123,1.31Z" style="fill:#fff;fill-rule:nonzero;"/><path d="M225.032,202.805c0,0.378 -0.082,0.724 -0.246,1.037c-0.164,0.312 -0.39,0.581 -0.677,0.805c-0.287,0.225 -0.626,0.4 -1.016,0.525c-0.391,0.125 -0.813,0.187 -1.266,0.187c-0.113,0 -0.235,-0.003 -0.366,-0.009c-0.131,-0.005 -0.261,-0.013 -0.39,-0.023c-0.129,-0.01 -0.255,-0.02 -0.378,-0.032c-0.123,-0.012 -0.233,-0.026 -0.331,-0.041l0,-0.926c0.211,0.051 0.452,0.088 0.724,0.111c0.271,0.024 0.546,0.036 0.823,0.036c0.313,-0 0.594,-0.038 0.844,-0.112c0.25,-0.074 0.463,-0.18 0.639,-0.319c0.175,-0.139 0.31,-0.307 0.404,-0.504c0.094,-0.197 0.14,-0.419 0.14,-0.665c0,-0.477 -0.17,-0.823 -0.512,-1.04c-0.342,-0.217 -0.833,-0.325 -1.474,-0.325l-1.453,-0l0,-3.914l4.125,-0l0,0.89l-3.164,0l-0,2.151l0.668,-0c0.367,-0 0.725,0.033 1.072,0.099c0.348,0.067 0.657,0.183 0.929,0.349c0.271,0.166 0.49,0.389 0.656,0.668c0.166,0.279 0.249,0.63 0.249,1.052Z" style="fill:#fff;fill-rule:nonzero;"/><path d="M232.145,205.254l-1.4,-0l-2.742,-3.153l-0,3.153l-1.02,-0l0,-8.279l1.02,-0l-0,5.085l2.642,-2.689l1.348,-0l-2.76,2.713l2.912,3.17Z" style="fill:#fff;fill-rule:nonzero;"/><path d="M256.351,200.998c-0,0.586 -0.059,1.12 -0.176,1.602c-0.117,0.483 -0.295,0.897 -0.533,1.243c-0.238,0.345 -0.534,0.613 -0.888,0.802c-0.353,0.19 -0.768,0.285 -1.245,0.285c-0.41,-0 -0.783,-0.078 -1.119,-0.232c-0.336,-0.154 -0.623,-0.391 -0.861,-0.712c-0.239,-0.32 -0.422,-0.728 -0.551,-1.224c-0.129,-0.496 -0.194,-1.084 -0.194,-1.764c0,-0.586 0.06,-1.121 0.179,-1.606c0.119,-0.484 0.297,-0.899 0.533,-1.245c0.237,-0.345 0.533,-0.613 0.888,-0.802c0.356,-0.19 0.77,-0.285 1.242,-0.285c0.41,0 0.783,0.078 1.119,0.232c0.336,0.154 0.623,0.392 0.862,0.715c0.238,0.322 0.422,0.731 0.55,1.227c0.129,0.496 0.194,1.084 0.194,1.764Zm-1.031,0.035c-0,-0.133 -0.005,-0.265 -0.015,-0.395c-0.01,-0.131 -0.021,-0.259 -0.032,-0.384l-3.241,2.408c0.059,0.203 0.133,0.391 0.223,0.563c0.09,0.171 0.198,0.319 0.325,0.442c0.127,0.123 0.272,0.219 0.434,0.287c0.162,0.068 0.347,0.103 0.554,0.103c0.265,-0 0.506,-0.065 0.723,-0.194c0.217,-0.129 0.402,-0.32 0.554,-0.574c0.152,-0.254 0.27,-0.569 0.352,-0.946c0.082,-0.377 0.123,-0.814 0.123,-1.31Zm-3.504,-0.07c-0,0.121 0.001,0.242 0.003,0.363c0.002,0.121 0.008,0.238 0.02,0.352l3.24,-2.397c-0.058,-0.199 -0.132,-0.381 -0.222,-0.545c-0.09,-0.164 -0.198,-0.305 -0.323,-0.425c-0.125,-0.119 -0.267,-0.211 -0.427,-0.278c-0.16,-0.066 -0.34,-0.1 -0.539,-0.1c-0.266,0 -0.507,0.065 -0.724,0.194c-0.217,0.129 -0.401,0.321 -0.554,0.577c-0.152,0.256 -0.269,0.572 -0.351,0.949c-0.082,0.377 -0.123,0.814 -0.123,1.31Z" style="fill:#fff;fill-rule:nonzero;"/><path d="M305.074,204.824l-4.811,0l0,-0.949l1.969,-0l-0,-5.59l-1.834,0.996l-0.375,-0.867l2.437,-1.283l0.903,-0l-0,6.744l1.711,-0l-0,0.949Z" style="fill:#fff;fill-rule:nonzero;"/><path d="M309.081,202.978c0.133,0 0.259,0.026 0.378,0.077c0.119,0.05 0.223,0.121 0.311,0.211c0.088,0.089 0.157,0.194 0.208,0.313c0.051,0.119 0.076,0.247 0.076,0.384c0,0.133 -0.025,0.258 -0.076,0.375c-0.051,0.117 -0.12,0.22 -0.208,0.307c-0.088,0.088 -0.192,0.158 -0.311,0.208c-0.119,0.051 -0.245,0.077 -0.378,0.077c-0.136,-0 -0.263,-0.026 -0.38,-0.077c-0.118,-0.05 -0.22,-0.12 -0.308,-0.208c-0.088,-0.087 -0.157,-0.19 -0.208,-0.307c-0.051,-0.117 -0.076,-0.242 -0.076,-0.375c-0,-0.137 0.025,-0.265 0.076,-0.384c0.051,-0.119 0.12,-0.224 0.208,-0.313c0.088,-0.09 0.19,-0.161 0.308,-0.211c0.117,-0.051 0.244,-0.077 0.38,-0.077Z" style="fill:#fff;fill-rule:nonzero;"/><path d="M318.509,200.998c0,0.586 -0.058,1.12 -0.176,1.602c-0.117,0.483 -0.295,0.897 -0.533,1.243c-0.238,0.345 -0.534,0.613 -0.888,0.802c-0.353,0.19 -0.768,0.285 -1.245,0.285c-0.41,-0 -0.783,-0.078 -1.119,-0.232c-0.336,-0.154 -0.623,-0.391 -0.861,-0.712c-0.238,-0.32 -0.422,-0.728 -0.551,-1.224c-0.129,-0.496 -0.193,-1.084 -0.193,-1.764c-0,-0.586 0.059,-1.121 0.178,-1.606c0.12,-0.484 0.297,-0.899 0.534,-1.245c0.236,-0.345 0.532,-0.613 0.887,-0.802c0.356,-0.19 0.77,-0.285 1.242,-0.285c0.411,0 0.784,0.078 1.12,0.232c0.336,0.154 0.623,0.392 0.861,0.715c0.238,0.322 0.422,0.731 0.551,1.227c0.129,0.496 0.193,1.084 0.193,1.764Zm-1.031,0.035c-0,-0.133 -0.005,-0.265 -0.015,-0.395c-0.01,-0.131 -0.02,-0.259 -0.032,-0.384l-3.24,2.408c0.058,0.203 0.133,0.391 0.222,0.563c0.09,0.171 0.199,0.319 0.326,0.442c0.127,0.123 0.271,0.219 0.433,0.287c0.162,0.068 0.347,0.103 0.554,0.103c0.266,-0 0.507,-0.065 0.724,-0.194c0.216,-0.129 0.401,-0.32 0.553,-0.574c0.153,-0.254 0.27,-0.569 0.352,-0.946c0.082,-0.377 0.123,-0.814 0.123,-1.31Zm-3.504,-0.07c-0,0.121 0.001,0.242 0.003,0.363c0.002,0.121 0.009,0.238 0.02,0.352l3.241,-2.397c-0.059,-0.199 -0.133,-0.381 -0.223,-0.545c-0.09,-0.164 -0.197,-0.305 -0.322,-0.425c-0.125,-0.119 -0.268,-0.211 -0.428,-0.278c-0.16,-0.066 -0.34,-0.1 -0.539,-0.1c-0.266,0 -0.507,0.065 -0.724,0.194c-0.217,0.129 -0.401,0.321 -0.553,0.577c-0.153,0.256 -0.27,0.572 -0.352,0.949c-0.082,0.377 -0.123,0.814 -0.123,1.31Z" style="fill:#fff;fill-rule:nonzero;"/><path d="M365.011,204.766l-4.81,-0l-0,-0.95l1.969,0l-0,-5.59l-1.834,0.997l-0.375,-0.868l2.437,-1.283l0.903,0l-0,6.744l1.71,0l0,0.95Z" style="fill:#fff;fill-rule:nonzero;"/><path d="M430.271,204.824l-5.045,0l0,-0.914l1.981,-1.969c0.324,-0.32 0.588,-0.597 0.791,-0.832c0.203,-0.234 0.361,-0.448 0.474,-0.641c0.114,-0.194 0.19,-0.376 0.229,-0.548c0.039,-0.172 0.059,-0.358 0.059,-0.557c-0,-0.187 -0.026,-0.366 -0.077,-0.536c-0.05,-0.17 -0.128,-0.319 -0.234,-0.448c-0.105,-0.129 -0.242,-0.231 -0.41,-0.305c-0.168,-0.074 -0.369,-0.111 -0.604,-0.111c-0.324,-0 -0.619,0.072 -0.884,0.217c-0.266,0.144 -0.51,0.332 -0.733,0.562l-0.562,-0.674c0.289,-0.304 0.622,-0.549 0.999,-0.732c0.377,-0.184 0.815,-0.276 1.315,-0.276c0.34,0 0.65,0.051 0.929,0.153c0.279,0.101 0.52,0.248 0.723,0.439c0.204,0.192 0.361,0.426 0.472,0.703c0.111,0.278 0.167,0.59 0.167,0.938c0,0.293 -0.039,0.564 -0.117,0.814c-0.078,0.25 -0.196,0.499 -0.355,0.747c-0.158,0.248 -0.357,0.505 -0.597,0.771c-0.24,0.266 -0.525,0.557 -0.853,0.873l-1.388,1.353l3.72,0l0,0.973Z" style="fill:#fff;fill-rule:nonzero;"/><path d="M436.676,202.375c-0,0.379 -0.082,0.725 -0.246,1.037c-0.165,0.313 -0.39,0.581 -0.677,0.806c-0.287,0.224 -0.626,0.399 -1.017,0.524c-0.39,0.125 -0.812,0.188 -1.265,0.188c-0.114,-0 -0.236,-0.003 -0.367,-0.009c-0.131,-0.006 -0.26,-0.014 -0.389,-0.024c-0.129,-0.009 -0.255,-0.02 -0.378,-0.032c-0.123,-0.012 -0.234,-0.025 -0.331,-0.041l-0,-0.926c0.211,0.051 0.452,0.088 0.723,0.112c0.272,0.023 0.546,0.035 0.824,0.035c0.312,-0 0.593,-0.037 0.843,-0.112c0.25,-0.074 0.463,-0.18 0.639,-0.319c0.176,-0.139 0.311,-0.306 0.404,-0.504c0.094,-0.197 0.141,-0.419 0.141,-0.665c-0,-0.476 -0.171,-0.823 -0.513,-1.04c-0.342,-0.217 -0.833,-0.325 -1.473,-0.325l-1.454,-0l0,-3.914l4.125,-0l0,0.891l-3.164,-0l0,2.15l0.668,-0c0.368,-0 0.725,0.033 1.073,0.1c0.347,0.066 0.657,0.182 0.928,0.348c0.272,0.166 0.491,0.389 0.657,0.668c0.166,0.279 0.249,0.63 0.249,1.052Z" style="fill:#fff;fill-rule:nonzero;"/><path d="M443.56,202.398c0,0.352 -0.063,0.682 -0.19,0.991c-0.127,0.308 -0.308,0.577 -0.542,0.805c-0.234,0.229 -0.517,0.408 -0.847,0.539c-0.33,0.131 -0.696,0.197 -1.098,0.197c-0.422,-0 -0.795,-0.068 -1.12,-0.203c-0.324,-0.134 -0.595,-0.341 -0.814,-0.621c-0.219,-0.279 -0.385,-0.631 -0.498,-1.057c-0.113,-0.426 -0.17,-0.93 -0.17,-1.512c0,-0.391 0.025,-0.77 0.076,-1.137c0.051,-0.367 0.135,-0.713 0.252,-1.037c0.117,-0.324 0.274,-0.621 0.469,-0.89c0.195,-0.27 0.438,-0.501 0.729,-0.695c0.291,-0.193 0.634,-0.344 1.029,-0.451c0.394,-0.107 0.851,-0.161 1.371,-0.161l0.756,-0l-0,0.891l-0.821,-0c-0.457,-0 -0.853,0.054 -1.189,0.164c-0.336,0.109 -0.617,0.263 -0.844,0.462c-0.226,0.2 -0.4,0.44 -0.521,0.721c-0.121,0.281 -0.198,0.596 -0.229,0.944l-0.023,0.24c0.246,-0.145 0.53,-0.261 0.852,-0.349c0.323,-0.088 0.671,-0.132 1.046,-0.132c0.387,0 0.726,0.057 1.017,0.17c0.291,0.114 0.533,0.271 0.726,0.472c0.194,0.201 0.339,0.442 0.437,0.724c0.098,0.281 0.146,0.589 0.146,0.925Zm-1.066,0.065c-0,-0.235 -0.028,-0.446 -0.085,-0.636c-0.057,-0.189 -0.146,-0.35 -0.267,-0.48c-0.121,-0.131 -0.274,-0.233 -0.46,-0.305c-0.185,-0.072 -0.407,-0.109 -0.665,-0.109c-0.148,0 -0.298,0.014 -0.451,0.042c-0.152,0.027 -0.302,0.065 -0.448,0.114c-0.146,0.049 -0.286,0.104 -0.419,0.167c-0.133,0.062 -0.254,0.129 -0.363,0.199c-0,0.504 0.035,0.925 0.105,1.263c0.071,0.338 0.175,0.608 0.314,0.811c0.138,0.203 0.309,0.348 0.512,0.434c0.204,0.086 0.438,0.129 0.704,0.129c0.222,-0 0.426,-0.036 0.612,-0.109c0.185,-0.072 0.346,-0.178 0.48,-0.319c0.135,-0.141 0.241,-0.312 0.317,-0.513c0.076,-0.201 0.114,-0.43 0.114,-0.688Z" style="fill:#fff;fill-rule:nonzero;"/><path d="M460.564,204.824l-5.045,0l0,-0.914l1.981,-1.969c0.324,-0.32 0.588,-0.597 0.791,-0.832c0.203,-0.234 0.361,-0.448 0.474,-0.641c0.114,-0.194 0.19,-0.376 0.229,-0.548c0.039,-0.172 0.059,-0.358 0.059,-0.557c-0,-0.187 -0.026,-0.366 -0.077,-0.536c-0.05,-0.17 -0.129,-0.319 -0.234,-0.448c-0.106,-0.129 -0.242,-0.231 -0.41,-0.305c-0.168,-0.074 -0.369,-0.111 -0.604,-0.111c-0.324,-0 -0.619,0.072 -0.884,0.217c-0.266,0.144 -0.51,0.332 -0.733,0.562l-0.562,-0.674c0.289,-0.304 0.622,-0.549 0.999,-0.732c0.377,-0.184 0.815,-0.276 1.315,-0.276c0.34,0 0.649,0.051 0.929,0.153c0.279,0.101 0.52,0.248 0.723,0.439c0.204,0.192 0.361,0.426 0.472,0.703c0.111,0.278 0.167,0.59 0.167,0.938c0,0.293 -0.039,0.564 -0.117,0.814c-0.078,0.25 -0.196,0.499 -0.355,0.747c-0.158,0.248 -0.357,0.505 -0.597,0.771c-0.241,0.266 -0.525,0.557 -0.853,0.873l-1.388,1.353l3.72,0l0,0.973Z" style="fill:#fff;fill-rule:nonzero;"/><path d="M467.338,200.998c-0,0.586 -0.059,1.12 -0.176,1.602c-0.117,0.483 -0.295,0.897 -0.533,1.243c-0.239,0.345 -0.535,0.613 -0.888,0.802c-0.354,0.19 -0.769,0.285 -1.245,0.285c-0.41,-0 -0.783,-0.078 -1.119,-0.232c-0.336,-0.154 -0.623,-0.391 -0.862,-0.712c-0.238,-0.32 -0.421,-0.728 -0.55,-1.224c-0.129,-0.496 -0.194,-1.084 -0.194,-1.764c0,-0.586 0.06,-1.121 0.179,-1.606c0.119,-0.484 0.297,-0.899 0.533,-1.245c0.236,-0.345 0.532,-0.613 0.888,-0.802c0.355,-0.19 0.769,-0.285 1.242,-0.285c0.41,0 0.783,0.078 1.119,0.232c0.336,0.154 0.623,0.392 0.862,0.715c0.238,0.322 0.421,0.731 0.55,1.227c0.129,0.496 0.194,1.084 0.194,1.764Zm-1.032,0.035c0,-0.133 -0.004,-0.265 -0.014,-0.395c-0.01,-0.131 -0.021,-0.259 -0.032,-0.384l-3.241,2.408c0.059,0.203 0.133,0.391 0.223,0.563c0.09,0.171 0.198,0.319 0.325,0.442c0.127,0.123 0.272,0.219 0.434,0.287c0.162,0.068 0.346,0.103 0.553,0.103c0.266,-0 0.507,-0.065 0.724,-0.194c0.217,-0.129 0.401,-0.32 0.554,-0.574c0.152,-0.254 0.269,-0.569 0.351,-0.946c0.082,-0.377 0.123,-0.814 0.123,-1.31Zm-3.503,-0.07c-0,0.121 0,0.242 0.002,0.363c0.002,0.121 0.009,0.238 0.021,0.352l3.24,-2.397c-0.058,-0.199 -0.133,-0.381 -0.222,-0.545c-0.09,-0.164 -0.198,-0.305 -0.323,-0.425c-0.125,-0.119 -0.267,-0.211 -0.427,-0.278c-0.161,-0.066 -0.34,-0.1 -0.54,-0.1c-0.265,0 -0.506,0.065 -0.723,0.194c-0.217,0.129 -0.402,0.321 -0.554,0.577c-0.152,0.256 -0.269,0.572 -0.351,0.949c-0.082,0.377 -0.123,0.814 -0.123,1.31Z" style="fill:#fff;fill-rule:nonzero;"/><path d="M530.239,202.805c-0,0.378 -0.083,0.724 -0.247,1.037c-0.164,0.312 -0.389,0.581 -0.676,0.805c-0.287,0.225 -0.626,0.4 -1.017,0.525c-0.391,0.125 -0.812,0.187 -1.266,0.187c-0.113,0 -0.235,-0.003 -0.366,-0.009c-0.131,-0.005 -0.261,-0.013 -0.389,-0.023c-0.129,-0.01 -0.255,-0.02 -0.378,-0.032c-0.123,-0.012 -0.234,-0.026 -0.331,-0.041l-0,-0.926c0.211,0.051 0.452,0.088 0.723,0.111c0.272,0.024 0.546,0.036 0.823,0.036c0.313,-0 0.594,-0.038 0.844,-0.112c0.25,-0.074 0.463,-0.18 0.639,-0.319c0.176,-0.139 0.31,-0.307 0.404,-0.504c0.094,-0.197 0.141,-0.419 0.141,-0.665c-0,-0.477 -0.171,-0.823 -0.513,-1.04c-0.342,-0.217 -0.833,-0.325 -1.474,-0.325l-1.453,-0l0,-3.914l4.125,-0l0,0.89l-3.164,0l0,2.151l0.668,-0c0.367,-0 0.725,0.033 1.073,0.099c0.347,0.067 0.657,0.183 0.928,0.349c0.272,0.166 0.49,0.389 0.657,0.668c0.166,0.279 0.249,0.63 0.249,1.052Z" style="fill:#fff;fill-rule:nonzero;"/><path d="M537.352,205.254l-1.401,-0l-2.742,-3.153l0,3.153l-1.019,-0l-0,-8.279l1.019,-0l0,5.085l2.643,-2.689l1.347,-0l-2.759,2.713l2.912,3.17Z" style="fill:#fff;fill-rule:nonzero;"/><path d="M561.557,200.998c0,0.586 -0.058,1.12 -0.176,1.602c-0.117,0.483 -0.294,0.897 -0.533,1.243c-0.238,0.345 -0.534,0.613 -0.887,0.802c-0.354,0.19 -0.769,0.285 -1.246,0.285c-0.41,-0 -0.783,-0.078 -1.119,-0.232c-0.336,-0.154 -0.623,-0.391 -0.861,-0.712c-0.238,-0.32 -0.422,-0.728 -0.551,-1.224c-0.129,-0.496 -0.193,-1.084 -0.193,-1.764c-0,-0.586 0.059,-1.121 0.179,-1.606c0.119,-0.484 0.296,-0.899 0.533,-1.245c0.236,-0.345 0.532,-0.613 0.887,-0.802c0.356,-0.19 0.77,-0.285 1.243,-0.285c0.41,0 0.783,0.078 1.119,0.232c0.336,0.154 0.623,0.392 0.861,0.715c0.238,0.322 0.422,0.731 0.551,1.227c0.129,0.496 0.193,1.084 0.193,1.764Zm-1.031,0.035c-0,-0.133 -0.005,-0.265 -0.015,-0.395c-0.009,-0.131 -0.02,-0.259 -0.032,-0.384l-3.24,2.408c0.058,0.203 0.133,0.391 0.223,0.563c0.089,0.171 0.198,0.319 0.325,0.442c0.127,0.123 0.271,0.219 0.433,0.287c0.162,0.068 0.347,0.103 0.554,0.103c0.266,-0 0.507,-0.065 0.724,-0.194c0.216,-0.129 0.401,-0.32 0.553,-0.574c0.153,-0.254 0.27,-0.569 0.352,-0.946c0.082,-0.377 0.123,-0.814 0.123,-1.31Zm-3.504,-0.07c0,0.121 0.001,0.242 0.003,0.363c0.002,0.121 0.009,0.238 0.021,0.352l3.24,-2.397c-0.059,-0.199 -0.133,-0.381 -0.223,-0.545c-0.09,-0.164 -0.197,-0.305 -0.322,-0.425c-0.125,-0.119 -0.268,-0.211 -0.428,-0.278c-0.16,-0.066 -0.34,-0.1 -0.539,-0.1c-0.266,0 -0.507,0.065 -0.724,0.194c-0.216,0.129 -0.401,0.321 -0.553,0.577c-0.153,0.256 -0.27,0.572 -0.352,0.949c-0.082,0.377 -0.123,0.814 -0.123,1.31Z" style="fill:#fff;fill-rule:nonzero;"/><path d="M610.28,204.824l-4.811,0l0,-0.949l1.969,-0l0,-5.59l-1.834,0.996l-0.375,-0.867l2.438,-1.283l0.902,-0l-0,6.744l1.711,-0l-0,0.949Z" style="fill:#fff;fill-rule:nonzero;"/><path d="M614.288,202.978c0.133,0 0.259,0.026 0.378,0.077c0.119,0.05 0.222,0.121 0.31,0.211c0.088,0.089 0.157,0.194 0.208,0.313c0.051,0.119 0.076,0.247 0.076,0.384c0,0.133 -0.025,0.258 -0.076,0.375c-0.051,0.117 -0.12,0.22 -0.208,0.307c-0.088,0.088 -0.191,0.158 -0.31,0.208c-0.119,0.051 -0.245,0.077 -0.378,0.077c-0.137,-0 -0.264,-0.026 -0.381,-0.077c-0.117,-0.05 -0.22,-0.12 -0.308,-0.208c-0.088,-0.087 -0.157,-0.19 -0.208,-0.307c-0.051,-0.117 -0.076,-0.242 -0.076,-0.375c0,-0.137 0.025,-0.265 0.076,-0.384c0.051,-0.119 0.12,-0.224 0.208,-0.313c0.088,-0.09 0.191,-0.161 0.308,-0.211c0.117,-0.051 0.244,-0.077 0.381,-0.077Z" style="fill:#fff;fill-rule:nonzero;"/><path d="M623.715,200.998c0,0.586 -0.058,1.12 -0.175,1.602c-0.118,0.483 -0.295,0.897 -0.534,1.243c-0.238,0.345 -0.534,0.613 -0.887,0.802c-0.354,0.19 -0.769,0.285 -1.245,0.285c-0.41,-0 -0.784,-0.078 -1.119,-0.232c-0.336,-0.154 -0.624,-0.391 -0.862,-0.712c-0.238,-0.32 -0.422,-0.728 -0.551,-1.224c-0.128,-0.496 -0.193,-1.084 -0.193,-1.764c0,-0.586 0.06,-1.121 0.179,-1.606c0.119,-0.484 0.297,-0.899 0.533,-1.245c0.236,-0.345 0.532,-0.613 0.888,-0.802c0.355,-0.19 0.769,-0.285 1.242,-0.285c0.41,0 0.783,0.078 1.119,0.232c0.336,0.154 0.623,0.392 0.861,0.715c0.239,0.322 0.422,0.731 0.551,1.227c0.129,0.496 0.193,1.084 0.193,1.764Zm-1.031,0.035c0,-0.133 -0.005,-0.265 -0.014,-0.395c-0.01,-0.131 -0.021,-0.259 -0.033,-0.384l-3.24,2.408c0.059,0.203 0.133,0.391 0.223,0.563c0.09,0.171 0.198,0.319 0.325,0.442c0.127,0.123 0.271,0.219 0.434,0.287c0.162,0.068 0.346,0.103 0.553,0.103c0.266,-0 0.507,-0.065 0.724,-0.194c0.217,-0.129 0.401,-0.32 0.554,-0.574c0.152,-0.254 0.269,-0.569 0.351,-0.946c0.082,-0.377 0.123,-0.814 0.123,-1.31Zm-3.504,-0.07c0,0.121 0.001,0.242 0.003,0.363c0.002,0.121 0.009,0.238 0.021,0.352l3.24,-2.397c-0.059,-0.199 -0.133,-0.381 -0.223,-0.545c-0.09,-0.164 -0.197,-0.305 -0.322,-0.425c-0.125,-0.119 -0.268,-0.211 -0.428,-0.278c-0.16,-0.066 -0.34,-0.1 -0.539,-0.1c-0.265,0 -0.507,0.065 -0.723,0.194c-0.217,0.129 -0.402,0.321 -0.554,0.577c-0.152,0.256 -0.27,0.572 -0.352,0.949c-0.082,0.377 -0.123,0.814 -0.123,1.31Z" style="fill:#fff;fill-rule:nonzero;"/></g><g id="Title"><path d="M33.178,26.953c-0,0.974 -0.162,1.874 -0.487,2.7c-0.325,0.826 -0.807,1.539 -1.447,2.141c-0.64,0.601 -1.437,1.069 -2.392,1.404c-0.955,0.334 -2.062,0.501 -3.323,0.501l-1.79,-0l0,6.015l-3.552,0l-0,-18.72l5.486,0c1.212,0 2.284,0.132 3.215,0.394c0.931,0.263 1.714,0.647 2.349,1.153c0.635,0.506 1.117,1.129 1.447,1.869c0.329,0.74 0.494,1.588 0.494,2.543Zm-3.695,0.243c-0,-0.496 -0.079,-0.947 -0.237,-1.353c-0.157,-0.406 -0.396,-0.752 -0.716,-1.039c-0.32,-0.286 -0.723,-0.506 -1.21,-0.659c-0.487,-0.152 -1.065,-0.229 -1.733,-0.229l-1.848,0l0,6.861l1.962,-0c0.611,-0 1.151,-0.084 1.619,-0.251c0.468,-0.167 0.862,-0.408 1.181,-0.723c0.32,-0.315 0.564,-0.692 0.731,-1.131c0.167,-0.44 0.251,-0.931 0.251,-1.476Z" style="fill:#fff;fill-rule:nonzero;"/><path d="M48.374,35.432c0,0.831 -0.183,1.54 -0.551,2.127c-0.368,0.587 -0.855,1.065 -1.461,1.432c-0.606,0.368 -1.294,0.635 -2.062,0.802c-0.769,0.167 -1.554,0.251 -2.357,0.251c-1.069,-0 -2.033,-0.05 -2.893,-0.15c-0.859,-0.101 -1.671,-0.246 -2.435,-0.437l0,-3.151c0.898,0.372 1.793,0.642 2.686,0.809c0.893,0.167 1.735,0.251 2.528,0.251c0.917,-0 1.602,-0.146 2.055,-0.437c0.454,-0.292 0.681,-0.671 0.681,-1.139c-0,-0.22 -0.048,-0.42 -0.144,-0.602c-0.095,-0.181 -0.274,-0.355 -0.537,-0.522c-0.262,-0.167 -0.632,-0.339 -1.11,-0.516c-0.477,-0.177 -1.103,-0.375 -1.876,-0.594c-0.716,-0.201 -1.344,-0.428 -1.884,-0.681c-0.539,-0.253 -0.985,-0.551 -1.339,-0.895c-0.353,-0.344 -0.618,-0.742 -0.795,-1.196c-0.176,-0.453 -0.265,-0.986 -0.265,-1.597c0,-0.592 0.134,-1.15 0.401,-1.676c0.268,-0.525 0.666,-0.986 1.196,-1.382c0.53,-0.396 1.192,-0.709 1.984,-0.938c0.793,-0.229 1.719,-0.344 2.779,-0.344c0.916,0 1.728,0.048 2.435,0.144c0.706,0.095 1.332,0.2 1.876,0.315l-0,2.85c-0.831,-0.267 -1.611,-0.456 -2.342,-0.566c-0.73,-0.11 -1.454,-0.165 -2.17,-0.165c-0.716,0 -1.291,0.129 -1.726,0.387c-0.434,0.258 -0.651,0.616 -0.651,1.074c-0,0.22 0.043,0.416 0.128,0.588c0.086,0.171 0.256,0.339 0.509,0.501c0.253,0.162 0.606,0.332 1.06,0.508c0.453,0.177 1.053,0.37 1.797,0.58c0.841,0.239 1.547,0.495 2.12,0.767c0.573,0.272 1.034,0.58 1.382,0.924c0.349,0.343 0.599,0.735 0.752,1.174c0.153,0.439 0.229,0.941 0.229,1.504Z" style="fill:#fff;fill-rule:nonzero;"/><path d="M65.175,31.321c0,0.239 -0.007,0.549 -0.021,0.931c-0.015,0.382 -0.036,0.74 -0.065,1.074l-9.567,0c-0,0.64 0.097,1.204 0.293,1.691c0.196,0.487 0.473,0.895 0.831,1.224c0.358,0.33 0.788,0.58 1.289,0.752c0.501,0.172 1.057,0.258 1.669,0.258c0.706,-0 1.463,-0.055 2.27,-0.165c0.807,-0.11 1.645,-0.289 2.513,-0.537l0,2.779c-0.372,0.105 -0.778,0.2 -1.217,0.286c-0.439,0.086 -0.888,0.163 -1.346,0.229c-0.459,0.067 -0.922,0.117 -1.39,0.151c-0.468,0.033 -0.921,0.05 -1.36,0.05c-1.108,-0 -2.101,-0.158 -2.98,-0.473c-0.878,-0.315 -1.623,-0.78 -2.234,-1.396c-0.611,-0.616 -1.079,-1.378 -1.404,-2.285c-0.324,-0.907 -0.487,-1.957 -0.487,-3.151c0,-1.184 0.163,-2.26 0.487,-3.23c0.325,-0.969 0.783,-1.8 1.375,-2.492c0.592,-0.692 1.311,-1.227 2.156,-1.604c0.845,-0.377 1.788,-0.566 2.829,-0.566c1.031,0 1.943,0.16 2.736,0.48c0.792,0.32 1.456,0.766 1.99,1.339c0.535,0.573 0.941,1.256 1.218,2.048c0.277,0.793 0.415,1.662 0.415,2.607Zm-3.552,-0.501c0.01,-0.573 -0.062,-1.072 -0.215,-1.497c-0.152,-0.425 -0.36,-0.776 -0.623,-1.053c-0.262,-0.276 -0.568,-0.482 -0.916,-0.615c-0.349,-0.134 -0.724,-0.201 -1.125,-0.201c-0.878,0 -1.599,0.294 -2.163,0.881c-0.563,0.587 -0.897,1.416 -1.002,2.485l6.044,-0Z" style="fill:#fff;fill-rule:nonzero;"/><path d="M72.093,25.162l0,9.482c0,0.793 0.148,1.392 0.444,1.798c0.296,0.406 0.745,0.608 1.347,0.608c0.582,0 1.143,-0.241 1.682,-0.723c0.54,-0.482 1.111,-1.134 1.712,-1.955l0,-9.21l3.495,0l-0,14.552l-3.022,0l-0.086,-2.148c-0.306,0.372 -0.616,0.711 -0.931,1.017c-0.315,0.306 -0.657,0.566 -1.024,0.781c-0.368,0.214 -0.769,0.382 -1.203,0.501c-0.435,0.119 -0.915,0.179 -1.44,0.179c-0.745,-0 -1.396,-0.122 -1.955,-0.365c-0.559,-0.244 -1.024,-0.59 -1.396,-1.039c-0.373,-0.449 -0.652,-0.986 -0.838,-1.611c-0.187,-0.625 -0.28,-1.325 -0.28,-2.098l0,-9.769l3.495,0Z" style="fill:#fff;fill-rule:nonzero;"/><path d="M93.907,39.714l-0.086,-2.148c-0.306,0.372 -0.621,0.711 -0.945,1.017c-0.325,0.306 -0.673,0.566 -1.046,0.781c-0.372,0.214 -0.771,0.382 -1.196,0.501c-0.425,0.119 -0.895,0.179 -1.411,0.179c-0.859,-0 -1.623,-0.172 -2.291,-0.516c-0.669,-0.343 -1.23,-0.833 -1.683,-1.468c-0.454,-0.635 -0.8,-1.406 -1.039,-2.313c-0.238,-0.907 -0.358,-1.919 -0.358,-3.036c0,-1.337 0.189,-2.495 0.566,-3.474c0.377,-0.978 0.9,-1.79 1.568,-2.435c0.669,-0.644 1.461,-1.122 2.378,-1.432c0.917,-0.31 1.915,-0.465 2.994,-0.465c0.362,-0 0.728,0.023 1.095,0.071c0.368,0.048 0.695,0.11 0.981,0.186l0,-5.686l3.495,0l0,20.238l-3.022,0Zm-6.388,-7.161c-0,0.802 0.055,1.487 0.165,2.055c0.109,0.569 0.272,1.034 0.487,1.397c0.215,0.363 0.479,0.628 0.795,0.795c0.315,0.167 0.673,0.25 1.074,0.25c0.592,0 1.155,-0.238 1.69,-0.716c0.535,-0.477 1.103,-1.131 1.704,-1.962l0,-6.359c-0.277,-0.105 -0.618,-0.191 -1.024,-0.258c-0.406,-0.067 -0.814,-0.1 -1.224,-0.1c-0.564,-0 -1.07,0.114 -1.519,0.343c-0.448,0.23 -0.833,0.554 -1.153,0.974c-0.319,0.42 -0.565,0.934 -0.737,1.54c-0.172,0.606 -0.258,1.287 -0.258,2.041Z" style="fill:#fff;fill-rule:nonzero;"/><path d="M113.988,32.324c-0,1.146 -0.163,2.194 -0.487,3.144c-0.325,0.95 -0.793,1.764 -1.404,2.442c-0.611,0.678 -1.361,1.203 -2.249,1.575c-0.888,0.373 -1.9,0.559 -3.036,0.559c-1.079,-0 -2.043,-0.158 -2.893,-0.473c-0.85,-0.315 -1.571,-0.785 -2.163,-1.411c-0.592,-0.625 -1.046,-1.408 -1.361,-2.349c-0.315,-0.94 -0.472,-2.036 -0.472,-3.287c-0,-1.155 0.164,-2.205 0.494,-3.151c0.329,-0.945 0.802,-1.752 1.418,-2.42c0.616,-0.669 1.368,-1.187 2.256,-1.554c0.888,-0.368 1.89,-0.552 3.007,-0.552c1.089,0 2.058,0.16 2.908,0.48c0.85,0.32 1.571,0.795 2.163,1.425c0.592,0.63 1.043,1.411 1.353,2.342c0.311,0.931 0.466,2.008 0.466,3.23Zm-3.638,0.086c-0,-1.509 -0.284,-2.643 -0.853,-3.402c-0.568,-0.759 -1.406,-1.139 -2.513,-1.139c-0.611,0 -1.132,0.12 -1.561,0.359c-0.43,0.238 -0.783,0.565 -1.06,0.981c-0.277,0.415 -0.48,0.9 -0.609,1.453c-0.129,0.554 -0.193,1.146 -0.193,1.776c-0,1.519 0.305,2.662 0.916,3.431c0.611,0.768 1.447,1.153 2.507,1.153c0.582,-0 1.088,-0.117 1.518,-0.351c0.43,-0.234 0.778,-0.559 1.046,-0.974c0.267,-0.415 0.467,-0.905 0.601,-1.468c0.134,-0.564 0.201,-1.17 0.201,-1.819Z" style="fill:#fff;fill-rule:nonzero;"/><path d="M129.943,26.953c0,0.974 -0.162,1.874 -0.487,2.7c-0.324,0.826 -0.806,1.539 -1.446,2.141c-0.64,0.601 -1.437,1.069 -2.392,1.404c-0.955,0.334 -2.063,0.501 -3.323,0.501l-1.79,-0l-0,6.015l-3.552,0l-0,-18.72l5.485,0c1.213,0 2.285,0.132 3.216,0.394c0.931,0.263 1.714,0.647 2.349,1.153c0.635,0.506 1.117,1.129 1.446,1.869c0.33,0.74 0.494,1.588 0.494,2.543Zm-3.695,0.243c0,-0.496 -0.079,-0.947 -0.236,-1.353c-0.158,-0.406 -0.396,-0.752 -0.716,-1.039c-0.32,-0.286 -0.724,-0.506 -1.211,-0.659c-0.487,-0.152 -1.064,-0.229 -1.733,-0.229l-1.847,0l-0,6.861l1.962,-0c0.611,-0 1.15,-0.084 1.618,-0.251c0.468,-0.167 0.862,-0.408 1.182,-0.723c0.32,-0.315 0.563,-0.692 0.73,-1.131c0.168,-0.44 0.251,-0.931 0.251,-1.476Z" style="fill:#fff;fill-rule:nonzero;"/><path d="M141.817,39.714l0,-9.481c0,-1.595 -0.592,-2.392 -1.776,-2.392c-0.592,-0 -1.158,0.239 -1.697,0.716c-0.54,0.477 -1.11,1.127 -1.712,1.948l0,9.209l-3.495,0l0,-20.238l3.495,0l0,4.985l-0.172,2.635c0.296,-0.353 0.597,-0.671 0.903,-0.952c0.305,-0.282 0.635,-0.518 0.988,-0.709c0.353,-0.191 0.735,-0.337 1.146,-0.437c0.41,-0.101 0.864,-0.151 1.361,-0.151c0.744,0 1.394,0.122 1.947,0.366c0.554,0.243 1.017,0.587 1.39,1.031c0.372,0.444 0.651,0.979 0.838,1.604c0.186,0.625 0.279,1.325 0.279,2.098l-0,9.768l-3.495,0Z" style="fill:#fff;fill-rule:nonzero;"/><path d="M158.389,39.714l-0.086,-1.904c-0.306,0.324 -0.626,0.623 -0.96,0.895c-0.334,0.272 -0.702,0.508 -1.103,0.709c-0.401,0.2 -0.838,0.355 -1.31,0.465c-0.473,0.11 -0.991,0.165 -1.554,0.165c-0.745,-0 -1.399,-0.11 -1.963,-0.33c-0.563,-0.219 -1.036,-0.525 -1.417,-0.916c-0.382,-0.392 -0.671,-0.864 -0.867,-1.418c-0.196,-0.554 -0.294,-1.165 -0.294,-1.833c0,-0.688 0.146,-1.323 0.437,-1.905c0.291,-0.583 0.735,-1.084 1.332,-1.504c0.597,-0.42 1.342,-0.75 2.235,-0.989c0.892,-0.238 1.94,-0.358 3.143,-0.358l1.905,0l0,-0.873c0,-0.373 -0.052,-0.709 -0.157,-1.01c-0.105,-0.301 -0.275,-0.556 -0.509,-0.766c-0.234,-0.21 -0.537,-0.373 -0.909,-0.487c-0.372,-0.115 -0.831,-0.172 -1.375,-0.172c-0.859,-0 -1.707,0.098 -2.542,0.293c-0.836,0.196 -1.645,0.471 -2.428,0.824l-0,-2.793c0.697,-0.277 1.501,-0.506 2.413,-0.688c0.912,-0.181 1.86,-0.272 2.843,-0.272c1.079,0 2.006,0.103 2.779,0.308c0.773,0.206 1.411,0.513 1.912,0.924c0.501,0.411 0.871,0.924 1.11,1.54c0.239,0.616 0.358,1.334 0.358,2.155l0,9.94l-2.993,0Zm-0.502,-6.431l-2.134,0c-0.592,0 -1.093,0.058 -1.504,0.172c-0.41,0.115 -0.744,0.273 -1.002,0.473c-0.258,0.201 -0.447,0.432 -0.566,0.695c-0.119,0.262 -0.179,0.542 -0.179,0.838c0,0.592 0.191,1.043 0.573,1.353c0.382,0.31 0.902,0.466 1.561,0.466c0.487,-0 0.993,-0.177 1.518,-0.53c0.526,-0.354 1.103,-0.86 1.733,-1.519l0,-1.948Z" style="fill:#fff;fill-rule:nonzero;"/><path d="M177.395,35.432c0,0.831 -0.184,1.54 -0.551,2.127c-0.368,0.587 -0.855,1.065 -1.461,1.432c-0.606,0.368 -1.294,0.635 -2.063,0.802c-0.768,0.167 -1.554,0.251 -2.356,0.251c-1.069,-0 -2.034,-0.05 -2.893,-0.15c-0.859,-0.101 -1.671,-0.246 -2.435,-0.437l0,-3.151c0.898,0.372 1.793,0.642 2.686,0.809c0.892,0.167 1.735,0.251 2.528,0.251c0.916,-0 1.601,-0.146 2.055,-0.437c0.454,-0.292 0.68,-0.671 0.68,-1.139c0,-0.22 -0.047,-0.42 -0.143,-0.602c-0.095,-0.181 -0.274,-0.355 -0.537,-0.522c-0.263,-0.167 -0.633,-0.339 -1.11,-0.516c-0.477,-0.177 -1.103,-0.375 -1.876,-0.594c-0.716,-0.201 -1.344,-0.428 -1.884,-0.681c-0.539,-0.253 -0.986,-0.551 -1.339,-0.895c-0.353,-0.344 -0.618,-0.742 -0.795,-1.196c-0.177,-0.453 -0.265,-0.986 -0.265,-1.597c0,-0.592 0.134,-1.15 0.401,-1.676c0.268,-0.525 0.666,-0.986 1.196,-1.382c0.53,-0.396 1.191,-0.709 1.984,-0.938c0.792,-0.229 1.719,-0.344 2.779,-0.344c0.916,0 1.728,0.048 2.434,0.144c0.707,0.095 1.332,0.2 1.877,0.315l-0,2.85c-0.831,-0.267 -1.612,-0.456 -2.342,-0.566c-0.731,-0.11 -1.454,-0.165 -2.17,-0.165c-0.716,0 -1.291,0.129 -1.726,0.387c-0.434,0.258 -0.652,0.616 -0.652,1.074c0,0.22 0.043,0.416 0.129,0.588c0.086,0.171 0.256,0.339 0.509,0.501c0.253,0.162 0.606,0.332 1.06,0.508c0.453,0.177 1.052,0.37 1.797,0.58c0.84,0.239 1.547,0.495 2.12,0.767c0.573,0.272 1.034,0.58 1.382,0.924c0.349,0.343 0.599,0.735 0.752,1.174c0.153,0.439 0.229,0.941 0.229,1.504Z" style="fill:#fff;fill-rule:nonzero;"/><path d="M194.196,31.321c0,0.239 -0.007,0.549 -0.021,0.931c-0.015,0.382 -0.036,0.74 -0.065,1.074l-9.568,0c0,0.64 0.098,1.204 0.294,1.691c0.196,0.487 0.473,0.895 0.831,1.224c0.358,0.33 0.787,0.58 1.289,0.752c0.501,0.172 1.057,0.258 1.668,0.258c0.707,-0 1.464,-0.055 2.271,-0.165c0.806,-0.11 1.644,-0.289 2.513,-0.537l0,2.779c-0.372,0.105 -0.778,0.2 -1.217,0.286c-0.439,0.086 -0.888,0.163 -1.347,0.229c-0.458,0.067 -0.921,0.117 -1.389,0.151c-0.468,0.033 -0.921,0.05 -1.361,0.05c-1.107,-0 -2.1,-0.158 -2.979,-0.473c-0.878,-0.315 -1.623,-0.78 -2.234,-1.396c-0.611,-0.616 -1.079,-1.378 -1.404,-2.285c-0.324,-0.907 -0.487,-1.957 -0.487,-3.151c0,-1.184 0.163,-2.26 0.487,-3.23c0.325,-0.969 0.783,-1.8 1.375,-2.492c0.592,-0.692 1.311,-1.227 2.156,-1.604c0.845,-0.377 1.788,-0.566 2.829,-0.566c1.031,0 1.943,0.16 2.735,0.48c0.793,0.32 1.456,0.766 1.991,1.339c0.535,0.573 0.941,1.256 1.218,2.048c0.277,0.793 0.415,1.662 0.415,2.607Zm-3.552,-0.501c0.009,-0.573 -0.062,-1.072 -0.215,-1.497c-0.153,-0.425 -0.36,-0.776 -0.623,-1.053c-0.263,-0.276 -0.568,-0.482 -0.917,-0.615c-0.348,-0.134 -0.723,-0.201 -1.124,-0.201c-0.878,0 -1.599,0.294 -2.163,0.881c-0.563,0.587 -0.897,1.416 -1.002,2.485l6.044,-0Z" style="fill:#fff;fill-rule:nonzero;"/><path d="M207.015,30.82c0.019,-0.544 -0.007,-1.007 -0.079,-1.389c-0.071,-0.382 -0.186,-0.697 -0.343,-0.946c-0.158,-0.248 -0.351,-0.429 -0.581,-0.544c-0.229,-0.115 -0.491,-0.172 -0.787,-0.172c-0.516,0 -1.048,0.213 -1.597,0.638c-0.549,0.424 -1.153,1.124 -1.812,2.098l-0,9.209l-3.581,0l0,-14.552l3.165,0l0.129,2.12c0.239,-0.372 0.509,-0.706 0.81,-1.002c0.3,-0.296 0.635,-0.552 1.002,-0.767c0.368,-0.215 0.776,-0.379 1.225,-0.494c0.449,-0.114 0.94,-0.172 1.475,-0.172c0.735,0 1.387,0.127 1.955,0.38c0.568,0.253 1.046,0.628 1.432,1.124c0.387,0.497 0.674,1.12 0.86,1.869c0.186,0.75 0.265,1.616 0.236,2.6l-3.509,-0Z" style="fill:#fff;fill-rule:nonzero;"/><path d="M700.607,20.202l0,4.729c0,0.291 -0.043,0.568 -0.13,0.831c-0.087,0.262 -0.219,0.49 -0.396,0.684c-0.177,0.195 -0.399,0.349 -0.666,0.464c-0.268,0.115 -0.582,0.172 -0.943,0.172c-0.135,-0 -0.273,-0.01 -0.414,-0.029c-0.141,-0.019 -0.276,-0.045 -0.406,-0.078c-0.131,-0.033 -0.253,-0.073 -0.368,-0.12c-0.114,-0.047 -0.213,-0.098 -0.296,-0.153l-0,-0.933c0.215,0.157 0.454,0.28 0.716,0.37c0.262,0.09 0.521,0.136 0.778,0.136c0.379,-0 0.671,-0.116 0.875,-0.347c0.205,-0.231 0.308,-0.563 0.308,-0.997l-0,-3.927l-2.589,-0l0,-0.802l3.531,-0Z" style="fill:#fff;fill-rule:nonzero;"/><path d="M706.941,27.009l-0.813,-0l-0.031,-0.844c-0.156,0.181 -0.305,0.331 -0.445,0.451c-0.141,0.119 -0.281,0.216 -0.42,0.289c-0.139,0.073 -0.278,0.124 -0.419,0.153c-0.141,0.03 -0.289,0.045 -0.445,0.045c-0.538,-0 -0.945,-0.158 -1.219,-0.474c-0.274,-0.316 -0.411,-0.794 -0.411,-1.433l-0,-3.416l0.906,-0l-0,3.343c-0,0.803 0.302,1.204 0.906,1.204c0.111,-0 0.22,-0.017 0.326,-0.05c0.106,-0.033 0.217,-0.09 0.333,-0.172c0.116,-0.081 0.241,-0.192 0.375,-0.33c0.134,-0.139 0.284,-0.315 0.45,-0.527l0,-3.468l0.907,-0l-0,5.229Z" style="fill:#fff;fill-rule:nonzero;"/><path d="M712.743,25.582c-0,0.184 -0.031,0.349 -0.094,0.495c-0.062,0.145 -0.148,0.275 -0.255,0.388c-0.108,0.112 -0.233,0.209 -0.375,0.289c-0.143,0.08 -0.294,0.146 -0.456,0.198c-0.161,0.052 -0.327,0.09 -0.497,0.114c-0.17,0.024 -0.337,0.037 -0.5,0.037c-0.354,-0 -0.68,-0.016 -0.977,-0.047c-0.297,-0.031 -0.588,-0.082 -0.872,-0.151l-0,-0.834c0.305,0.087 0.609,0.153 0.911,0.198c0.302,0.045 0.603,0.068 0.901,0.068c0.434,0 0.755,-0.059 0.964,-0.177c0.208,-0.118 0.312,-0.287 0.312,-0.505c0,-0.094 -0.016,-0.178 -0.049,-0.253c-0.033,-0.075 -0.093,-0.146 -0.18,-0.213c-0.087,-0.068 -0.221,-0.138 -0.404,-0.211c-0.182,-0.073 -0.431,-0.157 -0.747,-0.25c-0.236,-0.07 -0.454,-0.149 -0.654,-0.237c-0.199,-0.089 -0.372,-0.194 -0.518,-0.315c-0.146,-0.122 -0.26,-0.264 -0.344,-0.428c-0.083,-0.163 -0.125,-0.355 -0.125,-0.578c0,-0.145 0.034,-0.305 0.102,-0.479c0.068,-0.173 0.183,-0.335 0.346,-0.484c0.164,-0.149 0.384,-0.274 0.662,-0.373c0.278,-0.099 0.625,-0.148 1.042,-0.148c0.204,-0 0.432,0.011 0.682,0.034c0.25,0.022 0.51,0.061 0.781,0.117l0,0.807c-0.285,-0.069 -0.555,-0.12 -0.81,-0.153c-0.255,-0.033 -0.476,-0.05 -0.664,-0.05c-0.226,0 -0.416,0.018 -0.57,0.052c-0.155,0.035 -0.28,0.083 -0.375,0.144c-0.096,0.06 -0.164,0.131 -0.206,0.213c-0.042,0.082 -0.062,0.169 -0.062,0.263c-0,0.094 0.018,0.179 0.054,0.255c0.037,0.077 0.104,0.15 0.203,0.222c0.099,0.071 0.237,0.142 0.414,0.213c0.178,0.071 0.408,0.149 0.693,0.232c0.309,0.09 0.57,0.185 0.781,0.284c0.212,0.099 0.384,0.209 0.516,0.331c0.132,0.121 0.227,0.258 0.284,0.411c0.057,0.153 0.086,0.326 0.086,0.521Z" style="fill:#fff;fill-rule:nonzero;"/><path d="M718.68,26.936c-0.205,0.052 -0.416,0.089 -0.635,0.112c-0.219,0.023 -0.441,0.034 -0.667,0.034c-0.656,-0 -1.146,-0.149 -1.469,-0.445c-0.322,-0.297 -0.484,-0.753 -0.484,-1.368l0,-2.729l-1.463,0l-0,-0.76l1.463,-0l0,-1.438l0.906,-0.234l0,1.672l2.349,-0l0,0.76l-2.349,0l0,2.656c0,0.375 0.1,0.656 0.3,0.842c0.199,0.185 0.494,0.278 0.883,0.278c0.166,0 0.349,-0.013 0.546,-0.039c0.198,-0.026 0.405,-0.067 0.62,-0.122l0,0.781Z" style="fill:#fff;fill-rule:nonzero;"/><path d="M729.555,27.009l-0.021,-0.703c-0.284,0.281 -0.573,0.484 -0.867,0.609c-0.293,0.125 -0.601,0.188 -0.924,0.188c-0.299,-0 -0.554,-0.039 -0.766,-0.115c-0.212,-0.076 -0.386,-0.181 -0.523,-0.315c-0.137,-0.134 -0.238,-0.291 -0.302,-0.471c-0.065,-0.181 -0.097,-0.377 -0.097,-0.589c0,-0.524 0.196,-0.935 0.586,-1.232c0.391,-0.297 0.968,-0.445 1.732,-0.445l1.083,-0l0,-0.458c0,-0.309 -0.099,-0.557 -0.297,-0.743c-0.197,-0.185 -0.5,-0.278 -0.906,-0.278c-0.295,-0 -0.586,0.033 -0.872,0.099c-0.287,0.066 -0.583,0.159 -0.888,0.281l-0,-0.818c0.114,-0.041 0.242,-0.082 0.383,-0.122c0.14,-0.04 0.289,-0.076 0.445,-0.107c0.156,-0.031 0.319,-0.056 0.489,-0.075c0.171,-0.019 0.343,-0.029 0.516,-0.029c0.316,-0 0.601,0.035 0.854,0.104c0.254,0.07 0.468,0.176 0.644,0.318c0.175,0.142 0.309,0.321 0.403,0.536c0.094,0.216 0.141,0.469 0.141,0.761l-0,3.604l-0.813,-0Zm-0.099,-2.38l-1.151,-0c-0.225,-0 -0.42,0.022 -0.583,0.067c-0.163,0.046 -0.297,0.11 -0.401,0.193c-0.104,0.083 -0.182,0.183 -0.232,0.3c-0.05,0.116 -0.075,0.247 -0.075,0.393c-0,0.101 0.015,0.197 0.046,0.289c0.032,0.092 0.082,0.173 0.152,0.245c0.069,0.071 0.159,0.127 0.27,0.169c0.111,0.042 0.247,0.062 0.407,0.062c0.208,0 0.447,-0.063 0.716,-0.19c0.269,-0.126 0.553,-0.327 0.851,-0.601l0,-0.927Z" style="fill:#fff;fill-rule:nonzero;"/><path d="M742.066,25.582c-0,0.184 -0.032,0.349 -0.094,0.495c-0.063,0.145 -0.148,0.275 -0.255,0.388c-0.108,0.112 -0.233,0.209 -0.375,0.289c-0.143,0.08 -0.295,0.146 -0.456,0.198c-0.161,0.052 -0.327,0.09 -0.497,0.114c-0.171,0.024 -0.337,0.037 -0.5,0.037c-0.355,-0 -0.68,-0.016 -0.977,-0.047c-0.297,-0.031 -0.588,-0.082 -0.872,-0.151l-0,-0.834c0.305,0.087 0.609,0.153 0.911,0.198c0.302,0.045 0.603,0.068 0.901,0.068c0.434,0 0.755,-0.059 0.964,-0.177c0.208,-0.118 0.312,-0.287 0.312,-0.505c0,-0.094 -0.016,-0.178 -0.049,-0.253c-0.033,-0.075 -0.093,-0.146 -0.18,-0.213c-0.087,-0.068 -0.221,-0.138 -0.404,-0.211c-0.182,-0.073 -0.431,-0.157 -0.747,-0.25c-0.236,-0.07 -0.454,-0.149 -0.654,-0.237c-0.199,-0.089 -0.372,-0.194 -0.518,-0.315c-0.146,-0.122 -0.26,-0.264 -0.344,-0.428c-0.083,-0.163 -0.125,-0.355 -0.125,-0.578c0,-0.145 0.034,-0.305 0.102,-0.479c0.068,-0.173 0.183,-0.335 0.346,-0.484c0.163,-0.149 0.384,-0.274 0.662,-0.373c0.278,-0.099 0.625,-0.148 1.041,-0.148c0.205,-0 0.433,0.011 0.683,0.034c0.25,0.022 0.51,0.061 0.781,0.117l-0,0.807c-0.285,-0.069 -0.555,-0.12 -0.81,-0.153c-0.255,-0.033 -0.477,-0.05 -0.664,-0.05c-0.226,0 -0.416,0.018 -0.57,0.052c-0.155,0.035 -0.28,0.083 -0.375,0.144c-0.096,0.06 -0.164,0.131 -0.206,0.213c-0.042,0.082 -0.063,0.169 -0.063,0.263c0,0.094 0.019,0.179 0.055,0.255c0.037,0.077 0.104,0.15 0.203,0.222c0.099,0.071 0.237,0.142 0.414,0.213c0.177,0.071 0.408,0.149 0.693,0.232c0.309,0.09 0.569,0.185 0.781,0.284c0.212,0.099 0.384,0.209 0.516,0.331c0.132,0.121 0.226,0.258 0.284,0.411c0.057,0.153 0.086,0.326 0.086,0.521Z" style="fill:#fff;fill-rule:nonzero;"/><path d="M745.571,22.53l-1.547,-0l0,-0.75l2.464,-0l-0,4.474l1.557,-0l-0,0.755l-4.193,-0l0,-0.755l1.719,-0l-0,-3.724Zm0.318,-2.943c0.1,0 0.194,0.018 0.281,0.055c0.087,0.036 0.162,0.087 0.226,0.153c0.065,0.066 0.115,0.142 0.151,0.227c0.037,0.085 0.055,0.178 0.055,0.279c0,0.097 -0.018,0.189 -0.055,0.276c-0.036,0.086 -0.086,0.163 -0.151,0.229c-0.064,0.066 -0.139,0.117 -0.226,0.153c-0.087,0.037 -0.181,0.055 -0.281,0.055c-0.101,0 -0.195,-0.018 -0.282,-0.055c-0.086,-0.036 -0.162,-0.087 -0.226,-0.153c-0.064,-0.066 -0.115,-0.143 -0.151,-0.229c-0.037,-0.087 -0.055,-0.179 -0.055,-0.276c0,-0.101 0.018,-0.194 0.055,-0.279c0.036,-0.085 0.087,-0.161 0.151,-0.227c0.064,-0.066 0.14,-0.117 0.226,-0.153c0.087,-0.037 0.181,-0.055 0.282,-0.055Z" style="fill:#fff;fill-rule:nonzero;"/><path d="M753.383,27.009l0,-3.755c0,-0.164 -0.006,-0.297 -0.018,-0.401c-0.012,-0.105 -0.031,-0.187 -0.057,-0.248c-0.026,-0.061 -0.059,-0.103 -0.099,-0.127c-0.04,-0.025 -0.09,-0.037 -0.149,-0.037c-0.069,0 -0.133,0.021 -0.192,0.063c-0.059,0.041 -0.123,0.109 -0.19,0.203c-0.068,0.094 -0.143,0.218 -0.224,0.372c-0.082,0.155 -0.178,0.345 -0.289,0.571l-0,3.359l-0.828,-0l-0,-3.656c-0,-0.191 -0.007,-0.346 -0.019,-0.464c-0.012,-0.118 -0.031,-0.21 -0.057,-0.276c-0.026,-0.066 -0.06,-0.111 -0.102,-0.135c-0.041,-0.025 -0.092,-0.037 -0.151,-0.037c-0.062,0 -0.121,0.018 -0.177,0.052c-0.055,0.035 -0.117,0.097 -0.185,0.188c-0.067,0.09 -0.143,0.213 -0.226,0.37c-0.083,0.156 -0.182,0.355 -0.297,0.599l-0,3.359l-0.833,-0l-0,-5.229l0.692,-0l0.042,0.995c0.09,-0.198 0.178,-0.367 0.263,-0.506c0.085,-0.139 0.173,-0.251 0.263,-0.336c0.09,-0.085 0.187,-0.147 0.289,-0.187c0.103,-0.04 0.216,-0.06 0.341,-0.06c0.282,-0 0.495,0.092 0.641,0.276c0.146,0.184 0.219,0.469 0.219,0.854c0.083,-0.18 0.165,-0.341 0.244,-0.482c0.08,-0.14 0.166,-0.258 0.258,-0.354c0.092,-0.095 0.194,-0.168 0.305,-0.218c0.111,-0.051 0.24,-0.076 0.385,-0.076c0.657,-0 0.985,0.505 0.985,1.516l-0,3.807l-0.834,-0Z" style="fill:#fff;fill-rule:nonzero;"/><path d="M759.988,24.301c-0,0.465 -0.066,0.871 -0.196,1.218c-0.13,0.348 -0.31,0.636 -0.539,0.865c-0.229,0.229 -0.5,0.401 -0.812,0.516c-0.313,0.114 -0.651,0.171 -1.016,0.171c-0.167,0 -0.332,-0.008 -0.497,-0.026c-0.165,-0.017 -0.333,-0.047 -0.503,-0.088l0,2.187l-0.906,0l-0,-7.364l0.807,-0l0.057,0.875c0.261,-0.358 0.539,-0.609 0.834,-0.753c0.295,-0.144 0.614,-0.216 0.958,-0.216c0.299,-0 0.561,0.062 0.787,0.187c0.225,0.125 0.414,0.302 0.567,0.529c0.153,0.228 0.268,0.502 0.344,0.823c0.076,0.321 0.115,0.68 0.115,1.076Zm-0.928,0.041c0,-0.274 -0.02,-0.526 -0.059,-0.755c-0.04,-0.229 -0.104,-0.425 -0.191,-0.589c-0.086,-0.163 -0.197,-0.29 -0.333,-0.382c-0.135,-0.092 -0.297,-0.138 -0.484,-0.138c-0.115,-0 -0.231,0.018 -0.349,0.054c-0.118,0.037 -0.241,0.098 -0.367,0.183c-0.127,0.085 -0.261,0.198 -0.401,0.338c-0.141,0.141 -0.291,0.315 -0.451,0.524l0,2.536c0.167,0.07 0.342,0.124 0.526,0.164c0.184,0.04 0.365,0.06 0.542,0.06c0.489,0 0.873,-0.166 1.151,-0.497c0.278,-0.332 0.416,-0.831 0.416,-1.498Z" style="fill:#fff;fill-rule:nonzero;"/><path d="M763.165,20.394l-1.547,0l-0,-0.744l2.463,-0l0,6.604l1.558,-0l-0,0.755l-4.193,-0l-0,-0.755l1.719,-0l-0,-5.86Z" style="fill:#fff;fill-rule:nonzero;"/><path d="M771.665,24.118c-0,0.129 -0.002,0.236 -0.006,0.323c-0.003,0.087 -0.008,0.169 -0.015,0.245l-3.672,-0c-0,0.535 0.149,0.945 0.448,1.232c0.298,0.286 0.729,0.429 1.291,0.429c0.153,0 0.306,-0.006 0.459,-0.018c0.153,-0.012 0.3,-0.028 0.443,-0.049c0.142,-0.021 0.278,-0.045 0.408,-0.071c0.131,-0.026 0.251,-0.054 0.362,-0.086l0,0.745c-0.246,0.07 -0.525,0.126 -0.836,0.17c-0.31,0.043 -0.632,0.065 -0.966,0.065c-0.448,-0 -0.833,-0.061 -1.156,-0.183c-0.323,-0.121 -0.588,-0.297 -0.794,-0.528c-0.207,-0.231 -0.36,-0.514 -0.459,-0.849c-0.099,-0.335 -0.148,-0.715 -0.148,-1.138c0,-0.368 0.053,-0.716 0.159,-1.045c0.106,-0.328 0.26,-0.616 0.463,-0.864c0.204,-0.248 0.453,-0.445 0.748,-0.591c0.295,-0.146 0.63,-0.219 1.005,-0.219c0.365,-0 0.687,0.057 0.969,0.172c0.281,0.114 0.518,0.277 0.711,0.487c0.192,0.21 0.338,0.465 0.437,0.765c0.099,0.301 0.149,0.637 0.149,1.008Zm-0.943,-0.13c0.01,-0.233 -0.012,-0.445 -0.068,-0.638c-0.055,-0.193 -0.141,-0.358 -0.258,-0.497c-0.116,-0.139 -0.261,-0.248 -0.435,-0.326c-0.173,-0.078 -0.375,-0.117 -0.604,-0.117c-0.198,-0 -0.378,0.038 -0.541,0.115c-0.164,0.076 -0.304,0.184 -0.422,0.322c-0.118,0.139 -0.214,0.306 -0.287,0.5c-0.073,0.195 -0.118,0.408 -0.135,0.641l2.75,0Z" style="fill:#fff;fill-rule:nonzero;"/><path d="M782.336,27.009l-0.02,-0.703c-0.285,0.281 -0.574,0.484 -0.868,0.609c-0.293,0.125 -0.601,0.188 -0.924,0.188c-0.299,-0 -0.554,-0.039 -0.766,-0.115c-0.211,-0.076 -0.386,-0.181 -0.523,-0.315c-0.137,-0.134 -0.238,-0.291 -0.302,-0.471c-0.064,-0.181 -0.097,-0.377 -0.097,-0.589c0,-0.524 0.196,-0.935 0.586,-1.232c0.391,-0.297 0.968,-0.445 1.732,-0.445l1.084,-0l-0,-0.458c-0,-0.309 -0.099,-0.557 -0.297,-0.743c-0.198,-0.185 -0.5,-0.278 -0.907,-0.278c-0.295,-0 -0.586,0.033 -0.872,0.099c-0.286,0.066 -0.582,0.159 -0.888,0.281l-0,-0.818c0.115,-0.041 0.242,-0.082 0.383,-0.122c0.14,-0.04 0.289,-0.076 0.445,-0.107c0.156,-0.031 0.32,-0.056 0.49,-0.075c0.17,-0.019 0.342,-0.029 0.515,-0.029c0.316,-0 0.601,0.035 0.854,0.104c0.254,0.07 0.468,0.176 0.644,0.318c0.175,0.142 0.31,0.321 0.403,0.536c0.094,0.216 0.141,0.469 0.141,0.761l-0,3.604l-0.813,-0Zm-0.098,-2.38l-1.152,-0c-0.225,-0 -0.42,0.022 -0.583,0.067c-0.163,0.046 -0.297,0.11 -0.401,0.193c-0.104,0.083 -0.181,0.183 -0.232,0.3c-0.05,0.116 -0.075,0.247 -0.075,0.393c-0,0.101 0.015,0.197 0.047,0.289c0.031,0.092 0.081,0.173 0.151,0.245c0.069,0.071 0.159,0.127 0.271,0.169c0.111,0.042 0.246,0.062 0.406,0.062c0.208,0 0.447,-0.063 0.716,-0.19c0.269,-0.126 0.553,-0.327 0.852,-0.601l-0,-0.927Z" style="fill:#fff;fill-rule:nonzero;"/><path d="M786.623,20.394l-1.547,0l0,-0.744l2.464,-0l-0,6.604l1.557,-0l-0,0.755l-4.193,-0l0,-0.755l1.719,-0l-0,-5.86Z" style="fill:#fff;fill-rule:nonzero;"/><path d="M792.488,20.394l-1.547,0l-0,-0.744l2.463,-0l0,6.604l1.557,-0l0,0.755l-4.192,-0l-0,-0.755l1.719,-0l-0,-5.86Z" style="fill:#fff;fill-rule:nonzero;"/><path d="M801.04,24.301c-0,0.465 -0.066,0.871 -0.196,1.218c-0.13,0.348 -0.31,0.636 -0.539,0.865c-0.229,0.229 -0.5,0.401 -0.812,0.516c-0.313,0.114 -0.651,0.171 -1.016,0.171c-0.167,0 -0.332,-0.008 -0.497,-0.026c-0.165,-0.017 -0.333,-0.047 -0.503,-0.088l0,2.187l-0.906,0l-0,-7.364l0.807,-0l0.057,0.875c0.261,-0.358 0.539,-0.609 0.834,-0.753c0.295,-0.144 0.614,-0.216 0.958,-0.216c0.299,-0 0.561,0.062 0.787,0.187c0.225,0.125 0.414,0.302 0.567,0.529c0.153,0.228 0.268,0.502 0.344,0.823c0.076,0.321 0.115,0.68 0.115,1.076Zm-0.927,0.041c-0,-0.274 -0.02,-0.526 -0.06,-0.755c-0.04,-0.229 -0.104,-0.425 -0.19,-0.589c-0.087,-0.163 -0.198,-0.29 -0.334,-0.382c-0.135,-0.092 -0.297,-0.138 -0.484,-0.138c-0.115,-0 -0.231,0.018 -0.349,0.054c-0.118,0.037 -0.241,0.098 -0.367,0.183c-0.127,0.085 -0.261,0.198 -0.401,0.338c-0.141,0.141 -0.291,0.315 -0.451,0.524l0,2.536c0.167,0.07 0.342,0.124 0.526,0.164c0.184,0.04 0.365,0.06 0.542,0.06c0.489,0 0.873,-0.166 1.151,-0.497c0.278,-0.332 0.417,-0.831 0.417,-1.498Z" style="fill:#fff;fill-rule:nonzero;"/><path d="M805.795,27.009l-0.021,-0.703c-0.285,0.281 -0.574,0.484 -0.867,0.609c-0.294,0.125 -0.602,0.188 -0.925,0.188c-0.298,-0 -0.554,-0.039 -0.765,-0.115c-0.212,-0.076 -0.387,-0.181 -0.524,-0.315c-0.137,-0.134 -0.238,-0.291 -0.302,-0.471c-0.064,-0.181 -0.096,-0.377 -0.096,-0.589c-0,-0.524 0.195,-0.935 0.586,-1.232c0.39,-0.297 0.968,-0.445 1.732,-0.445l1.083,-0l-0,-0.458c-0,-0.309 -0.099,-0.557 -0.297,-0.743c-0.198,-0.185 -0.5,-0.278 -0.906,-0.278c-0.295,-0 -0.586,0.033 -0.873,0.099c-0.286,0.066 -0.582,0.159 -0.888,0.281l0,-0.818c0.115,-0.041 0.242,-0.082 0.383,-0.122c0.141,-0.04 0.289,-0.076 0.445,-0.107c0.157,-0.031 0.32,-0.056 0.49,-0.075c0.17,-0.019 0.342,-0.029 0.516,-0.029c0.316,-0 0.6,0.035 0.854,0.104c0.253,0.07 0.468,0.176 0.643,0.318c0.175,0.142 0.31,0.321 0.404,0.536c0.093,0.216 0.14,0.469 0.14,0.761l0,3.604l-0.812,-0Zm-0.099,-2.38l-1.151,-0c-0.226,-0 -0.42,0.022 -0.584,0.067c-0.163,0.046 -0.296,0.11 -0.401,0.193c-0.104,0.083 -0.181,0.183 -0.231,0.3c-0.051,0.116 -0.076,0.247 -0.076,0.393c0,0.101 0.016,0.197 0.047,0.289c0.031,0.092 0.082,0.173 0.151,0.245c0.069,0.071 0.16,0.127 0.271,0.169c0.111,0.042 0.246,0.062 0.406,0.062c0.208,0 0.447,-0.063 0.716,-0.19c0.269,-0.126 0.553,-0.327 0.852,-0.601l-0,-0.927Z" style="fill:#fff;fill-rule:nonzero;"/><path d="M812.441,25.582c-0,0.184 -0.032,0.349 -0.094,0.495c-0.063,0.145 -0.148,0.275 -0.255,0.388c-0.108,0.112 -0.233,0.209 -0.375,0.289c-0.143,0.08 -0.295,0.146 -0.456,0.198c-0.162,0.052 -0.327,0.09 -0.497,0.114c-0.171,0.024 -0.337,0.037 -0.5,0.037c-0.355,-0 -0.68,-0.016 -0.977,-0.047c-0.297,-0.031 -0.588,-0.082 -0.872,-0.151l-0,-0.834c0.305,0.087 0.609,0.153 0.911,0.198c0.302,0.045 0.602,0.068 0.901,0.068c0.434,0 0.755,-0.059 0.964,-0.177c0.208,-0.118 0.312,-0.287 0.312,-0.505c0,-0.094 -0.016,-0.178 -0.049,-0.253c-0.033,-0.075 -0.093,-0.146 -0.18,-0.213c-0.087,-0.068 -0.221,-0.138 -0.404,-0.211c-0.182,-0.073 -0.431,-0.157 -0.747,-0.25c-0.236,-0.07 -0.454,-0.149 -0.654,-0.237c-0.199,-0.089 -0.372,-0.194 -0.518,-0.315c-0.146,-0.122 -0.26,-0.264 -0.344,-0.428c-0.083,-0.163 -0.125,-0.355 -0.125,-0.578c0,-0.145 0.034,-0.305 0.102,-0.479c0.068,-0.173 0.183,-0.335 0.346,-0.484c0.163,-0.149 0.384,-0.274 0.662,-0.373c0.277,-0.099 0.625,-0.148 1.041,-0.148c0.205,-0 0.433,0.011 0.683,0.034c0.25,0.022 0.51,0.061 0.781,0.117l-0,0.807c-0.285,-0.069 -0.555,-0.12 -0.81,-0.153c-0.255,-0.033 -0.477,-0.05 -0.664,-0.05c-0.226,0 -0.416,0.018 -0.57,0.052c-0.155,0.035 -0.28,0.083 -0.375,0.144c-0.096,0.06 -0.164,0.131 -0.206,0.213c-0.042,0.082 -0.063,0.169 -0.063,0.263c0,0.094 0.019,0.179 0.055,0.255c0.037,0.077 0.104,0.15 0.203,0.222c0.099,0.071 0.237,0.142 0.414,0.213c0.177,0.071 0.408,0.149 0.693,0.232c0.309,0.09 0.569,0.185 0.781,0.284c0.212,0.099 0.384,0.209 0.516,0.331c0.132,0.121 0.226,0.258 0.284,0.411c0.057,0.153 0.086,0.326 0.086,0.521Z" style="fill:#fff;fill-rule:nonzero;"/><path d="M818.305,25.582c0,0.184 -0.031,0.349 -0.094,0.495c-0.062,0.145 -0.147,0.275 -0.255,0.388c-0.107,0.112 -0.232,0.209 -0.375,0.289c-0.142,0.08 -0.294,0.146 -0.455,0.198c-0.162,0.052 -0.328,0.09 -0.498,0.114c-0.17,0.024 -0.337,0.037 -0.5,0.037c-0.354,-0 -0.68,-0.016 -0.976,-0.047c-0.297,-0.031 -0.588,-0.082 -0.873,-0.151l0,-0.834c0.306,0.087 0.61,0.153 0.912,0.198c0.302,0.045 0.602,0.068 0.901,0.068c0.434,0 0.755,-0.059 0.963,-0.177c0.209,-0.118 0.313,-0.287 0.313,-0.505c-0,-0.094 -0.017,-0.178 -0.05,-0.253c-0.033,-0.075 -0.093,-0.146 -0.179,-0.213c-0.087,-0.068 -0.222,-0.138 -0.404,-0.211c-0.182,-0.073 -0.432,-0.157 -0.747,-0.25c-0.237,-0.07 -0.454,-0.149 -0.654,-0.237c-0.2,-0.089 -0.373,-0.194 -0.518,-0.315c-0.146,-0.122 -0.261,-0.264 -0.344,-0.428c-0.083,-0.163 -0.125,-0.355 -0.125,-0.578c-0,-0.145 0.034,-0.305 0.101,-0.479c0.068,-0.173 0.184,-0.335 0.347,-0.484c0.163,-0.149 0.383,-0.274 0.661,-0.373c0.278,-0.099 0.625,-0.148 1.042,-0.148c0.205,-0 0.432,0.011 0.682,0.034c0.25,0.022 0.511,0.061 0.781,0.117l0,0.807c-0.284,-0.069 -0.554,-0.12 -0.809,-0.153c-0.256,-0.033 -0.477,-0.05 -0.664,-0.05c-0.226,0 -0.416,0.018 -0.571,0.052c-0.154,0.035 -0.279,0.083 -0.375,0.144c-0.095,0.06 -0.164,0.131 -0.206,0.213c-0.041,0.082 -0.062,0.169 -0.062,0.263c-0,0.094 0.018,0.179 0.055,0.255c0.036,0.077 0.104,0.15 0.203,0.222c0.099,0.071 0.237,0.142 0.414,0.213c0.177,0.071 0.408,0.149 0.693,0.232c0.309,0.09 0.569,0.185 0.781,0.284c0.212,0.099 0.383,0.209 0.515,0.331c0.132,0.121 0.227,0.258 0.284,0.411c0.058,0.153 0.086,0.326 0.086,0.521Z" style="fill:#fff;fill-rule:nonzero;"/><path d="M830.076,27.009l-0.911,-0l-0,-3.948l-2.026,-0l-0,3.948l-0.907,-0l0,-3.948l-0.927,-0l0,-0.755l0.927,-0l0,-0.63c0,-0.698 0.199,-1.221 0.597,-1.568c0.397,-0.347 0.988,-0.521 1.773,-0.521c0.184,0 0.392,0.015 0.625,0.044c0.233,0.03 0.458,0.071 0.677,0.123l0,0.781c-0.208,-0.059 -0.43,-0.106 -0.667,-0.141c-0.236,-0.034 -0.458,-0.052 -0.666,-0.052c-0.465,0 -0.82,0.106 -1.065,0.318c-0.245,0.212 -0.367,0.533 -0.367,0.963l-0,0.683l2.937,-0l0,4.703Z" style="fill:#fff;fill-rule:nonzero;"/><path d="M833.54,20.394l-1.547,0l-0,-0.744l2.463,-0l0,6.604l1.558,-0l-0,0.755l-4.193,-0l-0,-0.755l1.719,-0l-0,-5.86Z" style="fill:#fff;fill-rule:nonzero;"/><path d="M841.836,26.936c-0.204,0.052 -0.416,0.089 -0.635,0.112c-0.219,0.023 -0.441,0.034 -0.667,0.034c-0.656,-0 -1.145,-0.149 -1.468,-0.445c-0.323,-0.297 -0.485,-0.753 -0.485,-1.368l0,-2.729l-1.463,0l-0,-0.76l1.463,-0l0,-1.438l0.906,-0.234l0,1.672l2.349,-0l0,0.76l-2.349,0l0,2.656c0,0.375 0.1,0.656 0.3,0.842c0.2,0.185 0.494,0.278 0.883,0.278c0.166,0 0.349,-0.013 0.547,-0.039c0.198,-0.026 0.404,-0.067 0.619,-0.122l0,0.781Z" style="fill:#fff;fill-rule:nonzero;"/><path d="M847.904,24.118c0,0.129 -0.002,0.236 -0.005,0.323c-0.004,0.087 -0.009,0.169 -0.016,0.245l-3.672,-0c0,0.535 0.15,0.945 0.448,1.232c0.299,0.286 0.73,0.429 1.292,0.429c0.153,0 0.306,-0.006 0.458,-0.018c0.153,-0.012 0.301,-0.028 0.443,-0.049c0.142,-0.021 0.279,-0.045 0.409,-0.071c0.13,-0.026 0.251,-0.054 0.362,-0.086l-0,0.745c-0.247,0.07 -0.525,0.126 -0.836,0.17c-0.311,0.043 -0.633,0.065 -0.966,0.065c-0.448,-0 -0.834,-0.061 -1.156,-0.183c-0.323,-0.121 -0.588,-0.297 -0.795,-0.528c-0.206,-0.231 -0.359,-0.514 -0.458,-0.849c-0.099,-0.335 -0.148,-0.715 -0.148,-1.138c-0,-0.368 0.052,-0.716 0.158,-1.045c0.106,-0.328 0.261,-0.616 0.464,-0.864c0.203,-0.248 0.452,-0.445 0.747,-0.591c0.295,-0.146 0.631,-0.219 1.006,-0.219c0.364,-0 0.687,0.057 0.968,0.172c0.282,0.114 0.518,0.277 0.711,0.487c0.193,0.21 0.339,0.465 0.438,0.765c0.099,0.301 0.148,0.637 0.148,1.008Zm-0.943,-0.13c0.011,-0.233 -0.012,-0.445 -0.067,-0.638c-0.056,-0.193 -0.142,-0.358 -0.258,-0.497c-0.116,-0.139 -0.261,-0.248 -0.435,-0.326c-0.174,-0.078 -0.375,-0.117 -0.604,-0.117c-0.198,-0 -0.379,0.038 -0.542,0.115c-0.163,0.076 -0.304,0.184 -0.422,0.322c-0.118,0.139 -0.213,0.306 -0.286,0.5c-0.073,0.195 -0.118,0.408 -0.136,0.641l2.75,0Z" style="fill:#fff;fill-rule:nonzero;"/><path d="M849.566,21.78l0.828,-0l0.026,0.963c0.309,-0.371 0.613,-0.64 0.914,-0.807c0.3,-0.167 0.603,-0.25 0.909,-0.25c0.541,-0 0.952,0.175 1.231,0.526c0.28,0.351 0.409,0.872 0.388,1.563l-0.916,-0c0.01,-0.459 -0.057,-0.791 -0.201,-0.998c-0.144,-0.206 -0.355,-0.31 -0.633,-0.31c-0.121,0 -0.243,0.022 -0.367,0.065c-0.123,0.044 -0.25,0.113 -0.38,0.209c-0.13,0.095 -0.268,0.218 -0.414,0.367c-0.146,0.149 -0.302,0.33 -0.469,0.542l0,3.359l-0.916,-0l-0,-5.229Z" style="fill:#fff;fill-rule:nonzero;"/></g></svg>